<svg width="600" height="170" viewBox="0 0 600 170" fill="none" xmlns="http://www.w3.org/2000/svg">

<path d="M575.321 0C588.951 0 600 11.0491 600 24.6787V144.987C600 158.617 588.951 169.666 575.321 169.666H24.6787C11.0491 169.666 8.15975e-05 158.617 0 144.987V24.6787C0 11.0491 11.0491 0 24.6787 0H575.321ZM91.002 24.6787C57.7799 24.6789 30.8477 51.6109 30.8477 84.833C30.8477 118.055 57.7799 144.987 91.002 144.987C124.224 144.987 151.156 118.055 151.156 84.833C151.156 51.6107 124.224 24.6787 91.002 24.6787Z" fill="#D3FA99"/>
<path d="M69.246 88.4042L70.8178 80.8943H65.0544L63.4389 88.4042H58.7234L60.3389 80.8943H56.8022V76.921H61.1685L62.8276 69.3238H58.5487V65.3069H63.6572L65.2727 57.8406H69.9882L68.3727 65.3069H74.0925L75.6643 57.8406H80.3799L78.808 65.3069H82.2573V69.3238H77.9784L76.3629 76.921H80.5109V80.8943H75.5334L73.9615 88.4042H69.246ZM65.884 76.921H71.6474L73.2629 69.3238H67.5432L65.884 76.921Z" fill="#D3FA99"/>
<path d="M98.4994 112.596V73.6444H86.7668V67.6999C93.4153 67.6999 98.1865 64.3366 99.7509 57.8446H107.964V112.596H98.4994Z" fill="#D3FA99"/>
<path d="M167.913 74.2211V36.9717H180.152C191.327 36.9717 199.734 44.4216 199.734 55.5964C199.734 66.7712 191.327 74.2211 180.152 74.2211H167.913ZM174.564 68.5272H179.62C188.027 68.5272 192.976 63.8444 192.976 55.5964C192.976 47.3483 188.027 42.6655 179.62 42.6655H174.564V68.5272ZM205.257 74.2211V47.029H211.536V74.2211H205.257ZM208.396 44.2619C206.055 44.2619 204.192 42.3995 204.192 40.0581C204.192 37.7699 206.055 35.9074 208.396 35.9074C210.684 35.9074 212.494 37.7699 212.494 40.0581C212.494 42.3995 210.684 44.2619 208.396 44.2619ZM230.411 85.3959C223.174 85.3959 219.13 82.4159 218.332 77.0414H224.877C225.516 79.3295 227.325 80.5002 230.624 80.5002C235.041 80.5002 237.382 78.1588 237.382 73.8486V69.2722C236.105 71.5604 233.285 73.5293 229.241 73.5293C222.589 73.5293 217.161 68.8465 217.161 59.9067C217.161 51.0732 222.589 46.284 229.241 46.284C233.179 46.284 236.105 48.2529 237.382 50.5411V47.029H243.662V73.5825C243.662 80.1277 239.724 85.3959 230.411 85.3959ZM230.518 68.6337C234.722 68.6337 237.489 65.0151 237.489 59.9067C237.489 54.7982 234.722 51.1797 230.518 51.1797C226.208 51.1797 223.653 54.5321 223.653 59.9067C223.653 65.3876 226.101 68.6337 230.518 68.6337ZM263.265 75.0193C254.592 75.0193 249.164 69.2722 249.164 60.6516C249.164 52.1375 255.443 46.2308 262.84 46.2308C270.928 46.2308 276.409 52.0843 276.515 62.4609H255.709C256.028 67.0372 259.115 70.0172 263.372 70.0172C266.458 70.0172 268.214 68.7401 269.066 67.0905H275.77C274.334 71.72 269.917 75.0193 263.265 75.0193ZM255.762 57.7781H270.183C269.491 53.8935 267.043 51.2861 262.999 51.2861C259.274 51.2861 256.348 54 255.762 57.7781ZM291.998 75.0193C284.495 75.0193 280.025 71.2411 279.653 65.7601H286.464C286.837 68.5272 288.859 70.3365 292.318 70.3365C295.191 70.3365 297.213 69.0061 297.213 66.8244C297.213 64.9619 295.936 64.0573 292.424 63.2591L289.391 62.5673C283.697 61.237 280.611 59.0552 280.611 54.4789C280.611 49.6365 285.081 46.284 291.307 46.284C298.331 46.284 302.056 49.9558 302.641 54.3725H296.309C295.723 52.0311 293.861 50.9136 291.2 50.9136C288.752 50.9136 286.943 52.0843 286.943 54.0532C286.943 55.8624 288.114 56.5542 290.934 57.246L294.021 57.991C299.768 59.3745 303.546 61.6095 303.546 66.1858C303.546 71.5604 298.597 75.0193 291.998 75.0193ZM310.191 38.9938H316.417V47.029H321.792V51.9247H316.417V65.2812C316.417 68.1015 317.322 69.5915 319.982 69.5915C320.674 69.5915 321.419 69.4851 322.324 69.3254V73.955C321.419 74.2743 319.823 74.4871 318.28 74.4871C313.863 74.4871 310.191 72.4118 310.191 66.3987V51.9247H305.562V47.029H310.191V38.9938ZM327.554 74.2211V47.029H333.833V74.2211H327.554ZM330.693 44.2619C328.352 44.2619 326.489 42.3995 326.489 40.0581C326.489 37.7699 328.352 35.9074 330.693 35.9074C332.982 35.9074 334.791 37.7699 334.791 40.0581C334.791 42.3995 332.982 44.2619 330.693 44.2619ZM347.334 74.2211L338.022 47.029H344.993L349.676 62.3013L351.432 68.3144H351.485L353.241 62.3013L357.817 47.029H364.522L355.316 74.2211H347.334ZM380.418 75.0193C371.744 75.0193 366.316 69.2722 366.316 60.6516C366.316 52.1375 372.596 46.2308 379.992 46.2308C388.081 46.2308 393.562 52.0843 393.668 62.4609H372.862C373.181 67.0372 376.267 70.0172 380.524 70.0172C383.611 70.0172 385.367 68.7401 386.218 67.0905H392.923C391.486 71.72 387.07 75.0193 380.418 75.0193ZM372.915 57.7781H387.336C386.644 53.8935 384.196 51.2861 380.152 51.2861C376.427 51.2861 373.5 54 372.915 57.7781ZM434.3 36.9717H440.952V74.2211H434.3V58.257H417.964V74.2211H411.312V36.9717H417.964V52.51H434.3V36.9717ZM460.687 75.0193C452.013 75.0193 446.585 69.2722 446.585 60.6516C446.585 52.1375 452.865 46.2308 460.261 46.2308C468.35 46.2308 473.831 52.0843 473.937 62.4609H453.131C453.45 67.0372 456.536 70.0172 460.793 70.0172C463.88 70.0172 465.636 68.7401 466.487 67.0905H473.192C471.755 71.72 467.339 75.0193 460.687 75.0193ZM453.184 57.7781H467.605C466.913 53.8935 464.465 51.2861 460.421 51.2861C456.696 51.2861 453.769 54 453.184 57.7781ZM486.919 74.966C481.811 74.966 477.287 72.2522 477.287 66.718C477.287 60.1195 483.726 58.7892 488.037 58.257L495.54 57.3524V54.5321C495.54 52.2439 493.73 50.8604 490.697 50.8604C487.664 50.8604 485.802 52.2439 485.376 54H478.458C479.363 49.6897 483.46 46.2308 490.75 46.2308C498.254 46.2308 501.766 49.3172 501.766 54.745V67.6758C501.766 69.9108 502.191 72.4118 502.67 74.2211H496.391C496.178 73.3696 495.912 71.9861 495.806 70.6558C494.422 72.7843 491.495 74.966 486.919 74.966ZM483.939 66.5051C483.939 68.8465 486.014 70.0704 488.675 70.0704C492.773 70.0704 495.54 67.0905 495.54 62.993V61.6627L489.686 62.4609C486.227 62.9398 483.939 63.738 483.939 66.5051ZM508.872 74.2211V36.9717H515.204V74.2211H508.872ZM524.288 38.9938H530.514V47.029H535.888V51.9247H530.514V65.2812C530.514 68.1015 531.418 69.5915 534.079 69.5915C534.771 69.5915 535.516 69.4851 536.42 69.3254V73.955C535.516 74.2743 533.919 74.4871 532.376 74.4871C527.959 74.4871 524.288 72.4118 524.288 66.3987V51.9247H519.658V47.029H524.288V38.9938ZM541.65 74.2211V36.9717H547.983V50.3283C549.419 48.1465 552.08 46.2308 555.911 46.2308C561.392 46.2308 564.958 49.6897 564.958 56.0753V74.2211H558.625V56.6074C558.625 53.6807 557.401 51.3925 554.102 51.3925C550.963 51.3925 547.983 53.6807 547.983 59.0552V74.2211H541.65Z" fill="#1C3A13"/>
<path d="M180.099 113.426C184.249 113.426 187.761 111.616 187.761 107.413C187.761 103.102 184.249 101.346 180.099 101.346H174.564V113.426H180.099ZM167.913 133.221V95.9717H180.524C188.613 95.9717 194.626 100.388 194.626 107.413C194.626 114.437 188.666 119.066 180.524 119.066H174.564V133.221H167.913ZM199.228 133.221V106.029H205.454V111.563C207.157 106.774 210.35 105.018 215.086 105.284V111.35C213.17 111.191 211.574 111.244 210.244 111.723C206.998 112.894 205.561 116.086 205.561 120.929V133.221H199.228ZM230.841 134.019C222.912 134.019 216.899 128.006 216.899 119.598C216.899 111.244 222.912 105.231 230.841 105.231C238.77 105.231 244.73 111.244 244.73 119.598C244.73 128.006 238.77 134.019 230.841 134.019ZM230.841 128.858C235.311 128.858 238.238 125.558 238.238 119.598C238.238 113.692 235.311 110.393 230.841 110.393C226.371 110.393 223.391 113.692 223.391 119.598C223.391 125.558 226.371 128.858 230.841 128.858ZM264.88 134.019C260.943 134.019 258.016 132.157 256.579 129.709V133.221H250.247V95.9717H256.579V109.435C258.016 106.987 260.943 105.231 264.88 105.231C271.798 105.231 277.013 110.712 277.013 119.652C277.013 128.591 271.798 134.019 264.88 134.019ZM263.603 128.964C268.126 128.964 270.521 125.292 270.521 119.652C270.521 113.958 268.126 110.286 263.603 110.286C259.399 110.286 256.526 114.224 256.526 119.652C256.526 125.026 259.399 128.964 263.603 128.964ZM282.667 133.221V106.029H288.947V133.221H282.667ZM285.807 103.262C283.466 103.262 281.603 101.399 281.603 99.0581C281.603 96.7699 283.466 94.9074 285.807 94.9074C288.095 94.9074 289.904 96.7699 289.904 99.0581C289.904 101.399 288.095 103.262 285.807 103.262ZM308.408 134.019C300.479 134.019 294.466 128.006 294.466 119.598C294.466 111.244 300.479 105.231 308.408 105.231C316.337 105.231 322.296 111.244 322.296 119.598C322.296 128.006 316.337 134.019 308.408 134.019ZM308.408 128.858C312.878 128.858 315.804 125.558 315.804 119.598C315.804 113.692 312.878 110.393 308.408 110.393C303.938 110.393 300.958 113.692 300.958 119.598C300.958 125.558 303.938 128.858 308.408 128.858ZM329.101 97.9938H335.327V106.029H340.701V110.925H335.327V124.281C335.327 127.102 336.231 128.591 338.892 128.591C339.584 128.591 340.329 128.485 341.233 128.325V132.955C340.329 133.274 338.732 133.487 337.189 133.487C332.772 133.487 329.101 131.412 329.101 125.399V110.925H324.471V106.029H329.101V97.9938ZM346.463 133.221V106.029H352.742V133.221H346.463ZM349.603 103.262C347.261 103.262 345.399 101.399 345.399 99.0581C345.399 96.7699 347.261 94.9074 349.603 94.9074C351.891 94.9074 353.7 96.7699 353.7 99.0581C353.7 101.399 351.891 103.262 349.603 103.262ZM371.831 134.019C364.062 134.019 358.315 128.591 358.315 119.652C358.315 110.925 364.168 105.284 371.991 105.284C379.068 105.284 383.432 109.541 384.23 114.596H377.951C377.099 112.149 375.183 110.499 372.097 110.499C368.053 110.499 364.966 113.692 364.966 119.652C364.966 125.665 368.053 128.751 371.991 128.751C375.29 128.751 377.152 126.995 377.951 124.654H384.23C383.485 129.709 379.015 134.019 371.831 134.019ZM392.532 102.354C392.532 101.652 392.532 100.917 392.596 100.119C391.893 100.566 391.191 101.013 390.648 101.3L388.254 102.705L386.817 100.215L389.435 98.6823L391.223 97.7245C390.489 97.3414 389.914 97.0221 389.275 96.6389L386.785 95.2022L388.254 92.616L390.808 94.1166C391.382 94.4359 391.957 94.7871 392.596 95.2022C392.532 94.5317 392.532 93.9251 392.532 93.3184V90.2214H395.469V93.2226C395.469 93.8612 395.469 94.5317 395.405 95.2341L396.97 94.2763L399.78 92.6479L401.216 95.1383L398.502 96.7347L396.778 97.6606C397.321 97.9161 397.864 98.2034 398.343 98.4908L401.216 100.151L399.748 102.737L396.938 101.109C396.427 100.822 395.948 100.502 395.405 100.151C395.469 100.885 395.469 101.588 395.469 102.258V105.196H392.532V102.354Z" fill="#1C3A13"/>
</svg>
