<svg width="19" height="19" viewBox="0 0 19 19" fill="none" xmlns="http://www.w3.org/2000/svg">
<path d="M6.22083 7.39967C6.15686 7.20892 6.1481 7.00386 6.19551 6.80746C6.24292 6.61106 6.34463 6.43107 6.48926 6.28768C6.63388 6.14429 6.8157 6.04314 7.01434 5.99559C7.21298 5.94803 7.42059 5.95594 7.61391 6.01843L18.0222 9.386C19.0215 9.70903 19.0176 11.1089 18.0164 11.4446L13.9001 12.825C13.7403 12.8785 13.5947 12.9674 13.4746 13.0849C13.3545 13.2025 13.2631 13.3455 13.2075 13.5029L11.743 17.6674C11.3982 18.6491 9.99264 18.6509 9.66337 17.669L6.22083 7.39967Z" fill="#272727"/>
<path d="M3.56579 8.84801C3.89861 8.49768 4.45273 8.48301 4.80309 8.81579C5.15345 9.14863 5.16718 9.70274 4.83434 10.0531L3.17223 11.8031C2.83939 12.1534 2.28527 12.1672 1.93493 11.8343C1.58493 11.5015 1.57101 10.9483 1.90368 10.598L3.56579 8.84801ZM0.0316089 5.01794C0.16009 4.55219 0.642029 4.27831 1.10778 4.40661L3.64587 5.1068C4.11153 5.23543 4.38468 5.71723 4.25622 6.18298C4.12771 6.64882 3.6459 6.92281 3.18005 6.7943L0.642937 6.09411C0.177193 5.96563 -0.0966925 5.48369 0.0316089 5.01794ZM10.598 1.90368C10.9483 1.57101 11.5015 1.58493 11.8343 1.93493C12.1672 2.28527 12.1534 2.83939 11.8031 3.17223L10.0531 4.83434C9.70274 5.16718 9.14863 5.15345 8.81579 4.80309C8.48301 4.45273 8.49768 3.89861 8.84801 3.56579L10.598 1.90368ZM5.01794 0.0316091C5.48369 -0.0966927 5.96563 0.177193 6.09411 0.642937L6.7943 3.18005C6.92281 3.6459 6.64882 4.12771 6.18298 4.25622C5.71723 4.38468 5.23543 4.11153 5.1068 3.64587L4.40661 1.10778C4.27831 0.642029 4.55219 0.16009 5.01794 0.0316091Z" fill="#272727"/>
</svg>
