<svg width="13" height="13" viewBox="0 0 13 13" fill="none" xmlns="http://www.w3.org/2000/svg">
<path d="M0.0544544 1.43495C-0.00950981 1.24421 -0.0182778 1.03915 0.0291329 0.842744C0.0765436 0.646342 0.17826 0.466361 0.322884 0.322966C0.467508 0.179572 0.649326 0.0784304 0.847964 0.0308753C1.0466 -0.0166799 1.25421 -0.00877009 1.44753 0.0537186L11.8558 3.42129C12.8551 3.74431 12.8512 5.14417 11.85 5.4799L7.73376 6.86025C7.57393 6.91374 7.42835 7.00269 7.30824 7.12023C7.18814 7.23777 7.09673 7.38076 7.04108 7.53815L5.57665 11.7027C5.23181 12.6844 3.82627 12.6861 3.49699 11.7042L0.0544544 1.43495Z" fill="#272727"/>
</svg>
