<svg width="10" height="10" viewBox="0 0 10 10" fill="none" xmlns="http://www.w3.org/2000/svg">
<circle cx="5" cy="5" r="5" fill="black"/>
<path d="M8.22156 4.02385C8.22139 4.02554 8.242 4.02351 8.23541 4.04682C8.23271 4.05628 8.20061 4.05966 8.20129 4.11506C8.20163 4.14361 8.23017 4.1703 8.21801 4.198C8.21092 4.21422 8.18507 4.21101 8.18102 4.22013C8.15956 4.2676 8.16463 4.35307 8.1594 4.36692C8.15281 4.38381 8.12764 4.37908 8.12663 4.38111C8.12105 4.39141 8.14149 4.42452 8.13406 4.43905C8.13186 4.44344 8.10365 4.44496 8.10163 4.44902C8.09487 4.46185 8.11244 4.48415 8.10568 4.49902C8.09926 4.51304 8.06497 4.52013 8.05585 4.56827C8.05112 4.59327 8.06244 4.65493 8.05889 4.65949C8.05669 4.66202 8.02882 4.6556 8.02578 4.66C8.00467 4.68905 8.04673 4.72064 8.03406 4.7475C8.02967 4.75679 8.01024 4.74935 8.00737 4.75729C7.97561 4.84496 8.02443 4.82587 8.01615 4.88229C8.0099 4.92503 7.98575 4.90881 7.9822 4.91793C7.96058 4.97283 7.98355 5.00915 7.98186 5.01726C7.97832 5.03432 7.94875 5.08821 7.94048 5.12773C7.93963 5.13179 7.96683 5.13179 7.95686 5.15307C7.95129 5.16523 7.92831 5.16726 7.9246 5.18027C7.92088 5.19327 7.93676 5.21625 7.93254 5.22942C7.92494 5.25341 7.90061 5.25307 7.89335 5.27554C7.89081 5.28364 7.905 5.29412 7.90399 5.29716C7.89892 5.31202 7.8795 5.31726 7.87409 5.33297C7.86869 5.34868 7.8844 5.36878 7.88034 5.38043C7.87595 5.3931 7.85011 5.39699 7.8425 5.41912C7.83811 5.43212 7.84994 5.44952 7.84791 5.45611C7.84504 5.46473 7.82713 5.46439 7.82139 5.48212C7.79909 5.55121 7.78203 5.62216 7.77156 5.69412L7.8474 5.67723C7.91041 5.62182 7.9724 5.55543 8.0425 5.50915C8.24217 5.37723 8.16041 5.48719 8.29234 5.5953C8.31227 5.61168 8.33271 5.6301 8.35467 5.64344C8.36565 5.65003 8.38592 5.63449 8.39706 5.6426C8.40923 5.65172 8.39842 5.67402 8.41041 5.68179C8.49521 5.73753 8.7447 5.61946 8.76379 5.52199C8.78913 5.39361 8.44352 5.16253 8.3724 5.02587C8.18389 4.66287 8.74875 4.18196 9.06953 4.32841C9.22105 4.39766 9.10163 4.485 9.08 4.59125C9.05011 4.61219 8.87206 4.41861 8.7724 4.42233C8.69656 4.4252 8.50247 4.55003 8.49014 4.63145C8.48794 4.64648 8.50686 4.63533 8.50737 4.66354C8.50788 4.69175 8.48693 4.6801 8.49048 4.69581C8.49436 4.71337 8.54284 4.78685 8.5572 4.80442C8.65365 4.92418 8.84571 5.00611 8.92004 5.11979C8.96835 5.19361 8.93575 5.30712 8.90298 5.38753C8.89892 5.39733 8.88203 5.39952 8.87291 5.41878C8.86784 5.42959 8.88254 5.44885 8.87443 5.46185C8.86902 5.4703 8.842 5.47081 8.83524 5.48229C8.76548 5.59952 8.7322 5.63415 8.64065 5.72672C8.62848 5.73905 8.63862 5.76456 8.62477 5.77858C8.61818 5.78516 8.47409 5.83027 8.44943 5.83973C8.43271 5.84614 8.43321 5.86641 8.40889 5.87571C8.40146 5.87858 8.26362 5.84969 8.25281 5.84614C8.13254 5.80594 8.02426 5.74361 7.99554 5.61337C7.91328 5.67706 7.83524 5.74581 7.75484 5.81202C7.72494 5.83652 7.69926 5.89935 7.64149 5.8926C7.6121 5.88922 7.48862 5.77452 7.47865 5.74192C7.45331 5.65915 7.51852 5.5676 7.5224 5.48668C7.42409 5.54158 7.32325 5.59581 7.23 5.65881C7.10416 5.74378 6.99808 5.85679 6.86362 5.92621C6.81514 5.89598 6.75957 5.8975 6.70872 5.86996C6.63946 5.83229 6.52832 5.72216 6.50112 5.64682C6.48913 5.61354 6.51193 5.55138 6.47511 5.54547C6.44132 5.54006 6.25619 5.70375 6.21125 5.7252C6.21987 5.81 6.17392 5.7654 6.15061 5.77841C6.09284 5.81084 5.99554 5.92976 5.93102 5.9475C5.8469 5.97081 5.73896 5.92452 5.67325 5.87503C5.64926 5.85696 5.59402 5.80425 5.60838 5.79192C5.20129 5.41337 6.02747 4.25391 6.46176 4.47013C6.75602 4.61658 6.46784 4.91169 6.32156 5.03331C6.31615 5.03787 6.32156 5.06236 6.31125 5.06929C6.29487 5.0806 6.22139 5.10037 6.17916 5.13145C6.16446 5.14226 6.16987 5.17013 6.15889 5.17925C6.14994 5.18669 6.12646 5.17402 6.11818 5.18043C6.0969 5.19665 6.10652 5.20898 6.09622 5.21675C6.08102 5.22824 6.05416 5.22571 6.04538 5.23229C6.03558 5.23973 6.04335 5.26405 6.03254 5.27216C6.01683 5.28381 5.99217 5.26523 5.9898 5.26709C5.98744 5.26895 5.98794 5.31388 5.96193 5.32385C5.92747 5.33719 5.8572 5.31726 5.81869 5.37891C5.84132 5.47452 5.79521 5.57706 5.82595 5.6703C5.83085 5.68516 5.85585 5.68145 5.8594 5.68888C5.86683 5.70442 5.85179 5.72216 5.85838 5.73145C5.88068 5.7627 5.95011 5.82283 5.98254 5.81962C6.0322 5.81473 6.19419 5.64547 6.2496 5.60493C6.32088 5.55273 6.40619 5.52554 6.47511 5.46962C6.48744 5.3605 6.53423 5.26321 6.56294 5.15932C6.56649 5.14665 6.53524 5.14766 6.54707 5.12773C6.55433 5.1154 6.57713 5.1176 6.58136 5.10915C6.72038 4.8279 6.93761 4.46675 7.28896 4.43331C7.44994 4.41793 7.59639 4.51777 7.55467 4.69108C7.5148 4.85645 7.29386 5.03314 7.16379 5.11979C7.15467 5.12587 7.13896 5.1127 7.12984 5.11878C7.12071 5.12486 7.11835 5.14344 7.10416 5.15273C7.08169 5.16743 7.0224 5.17756 6.99166 5.20696C6.97882 5.21912 6.9898 5.24648 6.98609 5.2502C6.98068 5.2556 6.94605 5.24226 6.93507 5.24699C6.82071 5.29682 6.79842 5.33297 6.79115 5.44902C6.79031 5.46287 6.81413 5.45594 6.80923 5.49074C6.80619 5.51152 6.78423 5.51 6.78456 5.51574C6.78761 5.55966 6.81244 5.67047 6.84352 5.70104C6.86227 5.71946 6.90669 5.72537 6.91784 5.73229C6.92173 5.73483 6.90484 5.79277 6.98186 5.76929C7.01362 5.75966 7.16075 5.63043 7.20669 5.60155C7.32747 5.5252 7.46109 5.46692 7.57173 5.37452C7.66902 5.15138 7.67038 4.90594 7.73186 4.67385C7.76649 4.5431 7.8371 4.40983 7.87071 4.2806C7.90889 4.13432 7.96632 3.58922 8.07832 3.51692C8.08963 3.50966 8.27984 3.42824 8.29132 3.42908C8.42663 3.43956 8.27325 3.73398 8.25703 3.79699C8.23794 3.87165 8.23102 3.94699 8.2219 4.02317L8.22156 4.02385ZM7.19926 4.52114C7.1974 4.52114 7.19588 4.49547 7.17325 4.51777C7.16565 4.5252 7.18423 4.54479 7.155 4.55459C7.13119 4.56253 7.11328 4.52976 7.08541 4.55831C7.07071 4.59209 7.02206 4.62908 7.00669 4.65087C7.00416 4.65442 6.99352 4.71861 6.98456 4.73398C6.9822 4.73804 6.95483 4.73145 6.94791 4.74378C6.8648 4.89108 6.84723 5.07723 6.82527 5.24192C6.86311 5.2855 7.13828 4.8931 7.15281 4.86912C7.15551 4.86473 7.14081 4.84293 7.14639 4.83348C7.15331 4.82148 7.18186 4.81793 7.19994 4.785C7.24521 4.70239 7.30078 4.62064 7.30652 4.52435C7.2621 4.50611 7.25061 4.52013 7.19909 4.52098L7.19926 4.52114ZM6.12054 4.985C6.16446 4.91844 6.30585 4.68263 6.32038 4.61473C6.32443 4.59598 6.33913 4.56168 6.31311 4.5502C6.30872 4.54834 6.22206 4.54834 6.21734 4.54952C6.21615 4.54986 6.21953 4.57317 6.21683 4.57402C6.07527 4.61996 6.02967 4.67824 5.95906 4.81101C5.95315 4.82216 5.96801 4.84462 5.96328 4.85679C5.95804 4.86996 5.93 4.86456 5.91565 4.90239C5.8697 5.02266 5.85652 5.16608 5.83727 5.29293C5.95602 5.23077 6.0469 5.09665 6.12054 4.98516V4.985Z" fill="white"/>
<path d="M2.69539 3.78095C2.65925 3.83264 2.72681 3.93044 2.66161 3.91608C2.64506 4.01693 2.59691 4.10764 2.56364 4.20291C2.55536 4.22673 2.57006 4.25122 2.56786 4.25764C2.56347 4.27098 2.53847 4.26845 2.53712 4.27267C2.52681 4.30409 2.54185 4.32352 2.53762 4.33585C2.53188 4.35308 2.51279 4.34159 2.50958 4.3524C2.50131 4.38095 2.48627 4.42521 2.48391 4.45274C2.48256 4.46997 2.50283 4.48483 2.50063 4.51879C2.4981 4.56119 2.46989 4.53939 2.46262 4.56558C2.44506 4.62774 2.44675 4.74058 2.43357 4.78821C2.42124 4.83281 2.37816 4.91119 2.36077 4.96304C2.35333 4.985 2.36904 5.00679 2.3655 5.01727C2.36397 5.02183 2.32208 5.03956 2.31009 5.08956C2.3057 5.10798 2.32124 5.14987 2.31533 5.15747C2.31347 5.15983 2.2856 5.15358 2.28272 5.15865C2.26803 5.18365 2.2334 5.2975 2.22327 5.33264C2.21972 5.34463 2.2508 5.34396 2.23965 5.37115C2.23526 5.38196 2.21262 5.38061 2.20772 5.40021C2.18323 5.49835 2.17495 5.60054 2.14658 5.69801C2.15587 5.69227 2.17073 5.69277 2.17766 5.68686C2.19134 5.67521 2.28543 5.40494 2.31144 5.35189C2.36465 5.24311 2.77901 4.57791 2.84979 4.53906C2.94404 4.4872 3.10671 4.59649 3.15502 4.67689C3.27681 4.87994 3.13965 4.99885 3.08745 5.1823C3.078 5.21575 3.09691 5.24159 3.09151 5.26169C3.06313 5.36744 3.03272 5.48247 3.00553 5.59835C2.99556 5.64075 2.92394 5.80882 2.9236 5.82064C2.9236 5.82808 2.94438 5.82521 2.9481 5.83821C2.95114 5.84869 2.93036 5.88467 2.96144 5.88939C2.99691 5.89463 3.26431 5.77385 3.30789 5.73196C3.3106 5.59717 3.26938 5.48112 3.29033 5.34277C3.32175 5.135 3.61735 4.74396 3.8008 4.64311C3.99843 4.5345 4.38357 4.44548 4.39269 4.78179L4.241 4.98433C4.23357 5.03534 4.14354 5.0698 4.10148 5.10646C4.08644 5.11963 4.0937 5.14244 4.0758 5.15713C4.05384 5.17521 4.03813 5.14936 4.02968 5.15308C3.98627 5.17217 3.92732 5.21997 3.88864 5.2421C3.88104 5.24649 3.85823 5.23889 3.85266 5.2421C3.85131 5.24294 3.8611 5.27098 3.85198 5.27504C3.83627 5.28213 3.80181 5.26896 3.77715 5.28044C3.75249 5.29193 3.57614 5.40308 3.57428 5.41524C3.56583 5.47064 3.61093 5.49531 3.61583 5.50831C3.62495 5.53298 3.59691 5.52504 3.59945 5.54041C3.61127 5.60899 3.62816 5.74615 3.67158 5.79902C3.78526 5.93787 4.01786 5.69007 4.08188 5.76085C4.116 5.79869 4.0209 5.82605 4.00401 5.83669C3.98965 5.84564 3.98898 5.87301 3.98678 5.87436C3.97411 5.88196 3.94185 5.86575 3.92394 5.87402C3.87664 5.89581 3.8187 5.91338 3.77462 5.93686C3.7508 5.94953 3.75722 5.98213 3.73019 5.98602C3.70316 5.9899 3.70164 5.96152 3.69979 5.96152C3.56026 5.96119 3.52006 6.00139 3.40502 5.8801C3.37107 5.84429 3.37225 5.79598 3.32479 5.77605C3.23171 5.86 3.07631 5.88331 2.96279 5.94227C2.95266 5.9475 2.9606 5.97284 2.9562 5.97521C2.93374 5.98771 2.91972 5.97706 2.90654 5.98179C2.90215 5.98331 2.90147 5.99987 2.89235 6.00291C2.87901 6.0073 2.85756 5.99412 2.84438 5.99632C2.82022 6.00054 2.80874 6.02757 2.77124 6.02402C2.71904 6.01912 2.6236 5.93247 2.61989 5.87875C2.61752 5.84429 2.66854 5.71051 2.66989 5.69429C2.6709 5.68298 2.63881 5.65308 2.64472 5.61845C2.64928 5.59176 2.67563 5.59311 2.67833 5.58146C2.70029 5.485 2.70131 5.37994 2.72647 5.28365C2.7557 5.17183 2.9106 4.82081 2.87698 4.73551C2.828 4.61119 2.66702 4.89294 2.63796 4.93467C2.45654 5.19598 2.32445 5.48196 2.18593 5.76777C2.18306 5.77369 2.16887 5.85781 2.16245 5.86592C2.15384 5.87689 2.09556 5.86321 2.13796 5.89649C2.0856 5.89598 2.08374 6.00578 2.07783 6.00933C2.06921 6.01456 2.04252 6.00679 2.028 6.0144C1.96769 6.04598 1.81651 6.13838 1.79573 6.01524C1.78323 5.94075 1.84354 5.82436 1.8383 5.74885C1.72377 5.86135 1.59607 5.93551 1.46431 6.02031C1.46279 6.02132 1.47529 6.04311 1.45925 6.05342C1.42783 6.07335 1.33509 6.06896 1.32107 6.12909C1.26178 6.10814 1.19252 6.12183 1.13391 6.10646C1.11397 6.10122 1.0905 6.06456 1.078 6.06119C1.06245 6.05696 1.06296 6.09463 1.0486 6.07791C1.0209 6.04564 1.00941 5.80173 1.01482 5.74869C1.01482 5.7475 1.03999 5.74987 1.04016 5.74869C1.04624 5.697 1.03813 5.62774 1.04928 5.56794C1.07952 5.40646 1.29218 4.88348 1.29016 4.81406C1.28712 4.71152 1.08948 4.82487 1.07732 4.72723C1.06516 4.6296 1.26296 4.72217 1.31837 4.67994C1.33577 4.66676 1.36516 4.56051 1.3905 4.52402C1.41144 4.49396 1.61702 4.32436 1.64455 4.32048C1.70908 4.31152 1.6481 4.40173 1.64911 4.4274C1.64911 4.43162 1.68357 4.43433 1.67411 4.47774C1.66803 4.50527 1.64455 4.48889 1.63475 4.51524C1.63222 4.52217 1.61685 4.64396 1.61887 4.65054C1.61955 4.65291 1.6508 4.68399 1.65316 4.6845C1.66735 4.68703 1.83864 4.64193 1.8812 4.64244C2.00908 4.64362 1.97107 4.76862 1.92394 4.76C1.91195 4.75781 1.91735 4.73517 1.89877 4.73551C1.8687 4.73585 1.61397 4.78264 1.60215 4.7948C1.59337 4.80392 1.55722 4.93146 1.54708 4.95967C1.54641 4.96169 1.57327 4.96338 1.5633 4.98399C1.55654 4.99784 1.5312 5.00037 1.52343 5.02014C1.43306 5.25189 1.3655 5.44581 1.33002 5.69581C1.32833 5.70713 1.3508 5.72588 1.34489 5.75291C1.33965 5.77673 1.31431 5.7725 1.3106 5.79531C1.2383 6.23433 1.77259 5.74581 1.8709 5.64615L1.9834 5.1345C2.14252 4.85595 2.15485 4.54463 2.26144 4.23771C2.266 4.2247 2.25316 4.20477 2.25671 4.19497C2.25722 4.19379 2.27833 4.19936 2.28205 4.18923C2.29742 4.14784 2.3258 4.08787 2.33729 4.05189C2.34033 4.0421 2.32191 4.03044 2.32411 4.02233C2.32529 4.01794 2.39117 3.97723 2.33256 3.98889C2.30637 3.99412 2.23357 4.04953 2.22546 4.05189C2.21837 4.05409 2.20029 4.04176 2.18661 4.0448C2.17884 4.04649 2.02479 4.10004 2.07073 4.03467C2.08087 4.02014 2.34928 3.93162 2.40215 3.90561C2.49489 3.86017 2.58256 3.74733 2.69573 3.78112L2.69539 3.78095ZM4.09489 4.60291C4.03272 4.57217 3.9035 4.65409 3.85688 4.69379C3.85046 4.69919 3.85536 4.72166 3.85114 4.72571C3.84641 4.7301 3.8231 4.72402 3.80941 4.73889C3.78391 4.76642 3.73543 4.8372 3.71313 4.87098C3.7057 4.88213 3.72208 4.90443 3.71685 4.91592C3.71398 4.92233 3.64354 4.97504 3.62512 5.01929C3.61938 5.03298 3.65367 5.03213 3.64134 5.05223C3.63357 5.0649 3.60975 5.06271 3.60654 5.07064C3.59979 5.0872 3.60975 5.10426 3.60756 5.1095C3.603 5.12048 3.57901 5.12994 3.56989 5.16676C3.55485 5.22791 3.55198 5.28973 3.55705 5.35206C3.57546 5.36389 3.66516 5.29818 3.68256 5.28298C3.68813 5.27808 3.67293 5.25882 3.68289 5.24581C3.69286 5.23281 3.7111 5.24412 3.72158 5.23467C3.83492 5.13314 4.11854 4.86254 4.13914 4.71389C4.14185 4.69396 4.14185 4.66304 4.13425 4.64446C4.13323 4.64176 4.09742 4.60443 4.09489 4.60308V4.60291Z" fill="white"/>
<path d="M6.29827 3.50604C6.32226 3.52597 6.37091 3.58458 6.3606 3.61617C6.35841 3.62276 6.28205 3.72259 6.27648 3.72665C6.27276 3.72935 6.22057 3.73205 6.18864 3.75654C6.1677 3.77242 6.18611 3.79016 6.14979 3.8106C6.11888 3.828 5.98222 3.81769 5.93662 3.82546L5.69016 3.90671C5.69844 3.97901 5.65672 3.96668 5.6432 3.98813C5.6405 3.99236 5.68104 4.02496 5.66837 4.0807C5.66195 4.10891 5.63915 4.10232 5.63003 4.12681C5.61162 4.17648 5.63594 4.21904 5.63476 4.22411C5.63256 4.2334 5.60553 4.23796 5.60199 4.25148C5.59624 4.27208 5.61837 4.3057 5.60841 4.3334C5.60249 4.34979 5.57885 4.34117 5.57293 4.35756C5.55925 4.39472 5.55689 4.43458 5.55874 4.47377L5.93442 4.44793C6.06516 4.628 5.6329 4.52479 5.55435 4.53205C5.48526 4.53847 5.46533 4.69877 5.44878 4.75604C5.44827 4.75806 5.47665 4.76415 5.46584 4.78188C5.45824 4.79438 5.43459 4.79286 5.43374 4.79607C5.38932 4.98188 5.37547 5.17158 5.32631 5.35621C5.31314 5.40553 5.29624 5.46195 5.2829 5.51043C5.27969 5.52192 5.25841 5.52411 5.25537 5.53475C5.25064 5.55181 5.26567 5.57023 5.26212 5.5829C5.25874 5.59489 5.2356 5.59658 5.23121 5.61144C5.18881 5.75553 5.17817 5.85975 5.11955 6.00688C5.1182 6.01009 5.14101 6.00705 5.13628 6.0231C5.13121 6.04067 5.10418 6.03611 5.0954 6.04911C5.07276 6.0829 5.05993 6.14151 5.05672 6.1459C5.01651 6.19962 4.64658 6.57344 4.59557 6.58898C4.5552 6.60131 4.22918 6.63864 4.30047 6.53019C4.30655 6.5209 4.4731 6.40502 4.48358 6.40097C4.56381 6.37056 4.70283 6.4155 4.7851 6.35621C4.80097 6.34472 4.85672 6.21364 4.86364 6.18982C4.87885 6.13813 4.91787 5.94303 4.91702 5.89607C4.91668 5.87952 4.87969 5.88121 4.89793 5.82783C4.90452 5.8084 4.92276 5.82175 4.92547 5.81127C4.9481 5.72327 4.95925 5.61837 4.9851 5.52766C5.05976 5.26533 5.08476 5.11144 5.13864 4.85181C5.15182 4.7883 5.22783 4.59877 5.22868 4.56161C5.23037 4.49117 5.0807 4.62766 5.0601 4.54472C5.03543 4.44472 5.21837 4.49151 5.26077 4.45452C5.26939 4.44708 5.31905 4.27648 5.33746 4.23982C5.46347 3.98763 5.89253 3.62208 6.14776 3.50452C6.22986 3.46668 6.22699 3.44675 6.29827 3.50587V3.50604Z" fill="white"/>
</svg>
