<svg width="500" height="500" viewBox="0 0 500 500" fill="none" xmlns="http://www.w3.org/2000/svg">
<g id="color=dark">
<g clip-path="url(#clip0_598_11795)">
<circle id="Ellipse 53" cx="250" cy="250" r="250" fill="#F5F5F5"/>
<g id="Mask group">
<mask id="mask0_598_11795" style="mask-type:alpha" maskUnits="userSpaceOnUse" x="0" y="0" width="500" height="500">
<circle id="Ellipse 54" cx="250" cy="250" r="250" fill="#F5F5F5"/>
</mask>
<g mask="url(#mask0_598_11795)">
<g id="Layer 2">
<g id="Group">
<path id="Vector" d="M174.938 222.7C176.588 221.05 178.338 219.5 180.088 217.95C180.888 217.25 181.738 216.5 182.488 215.8C183.238 215.05 184.038 214.35 184.788 213.65C187.888 210.8 191.288 207.9 194.938 205.8C201.538 194.05 197.638 186.85 185.988 186.85C173.538 186.85 158.688 192.5 141.688 202.15C141.638 195.35 135.388 191.5 125.238 191.5C124.088 191.5 122.838 191.65 121.638 191.65C123.688 184.35 118.888 180 109.288 180C78.0885 180 31.4885 207.1 16.7385 232.7C5.73847 251.8 14.8385 263.95 38.0385 263.95C44.4885 263.95 52.2885 263.1 60.5385 261.45C40.9885 276.1 24.3385 285.7 7.28847 291.4C-5.66153 288.25 -14.3615 284.1 -30.4615 284.1C-48.5615 284.1 -56.1615 288.45 -58.3615 292.25C-60.5615 296.05 -57.9115 299.25 -37.0115 299.25C-24.2615 299.25 -12.5115 297.9 -1.51153 295.25C7.98847 297.75 18.7885 299.75 33.3885 299.75C56.4385 299.75 80.3385 290.75 98.6885 278.8L104.538 275C105.338 274.5 105.188 273.85 104.688 273.85C104.455 273.85 104.255 273.9 104.088 274L98.2385 277.8C80.9385 289.1 60.8885 295.1 39.6885 295.1C26.5885 295.1 17.2385 293.75 9.48847 291.95C27.6385 285.8 47.8885 275.65 69.7885 259.55C93.1885 254.05 119.438 243.9 139.088 233.45C140.488 234.8 142.838 235.3 145.988 235.3C153.088 235.3 162.588 231.95 171.488 226.95C172.438 225.55 173.588 224.15 174.888 222.8L174.938 222.7ZM-36.2115 297.9C-55.7615 297.9 -59.0115 295.75 -57.0115 292.25C-55.0115 288.75 -46.6615 286.95 -42.5115 286.95C-27.7615 286.95 -17.0115 291.1 -4.11153 294.6C-14.2615 296.95 -24.6115 297.9 -36.2115 297.9ZM118.438 196.15C108.188 213.95 71.9885 238.2 49.7385 238.2C44.5885 238.2 42.9385 236.2 45.4885 231.7C51.9885 220.4 91.6385 195.6 119.888 192.95C119.488 193.95 118.988 195.1 118.388 196.1L118.438 196.15ZM62.5885 260C53.8385 261.65 45.7885 262.65 38.8385 262.65C16.5885 262.65 9.73847 252.65 19.9885 234.9C34.3885 209.95 84.9885 181.35 108.538 181.35C117.188 181.35 121.938 185.15 120.238 191.8C91.4885 194.45 51.0885 219.75 44.1885 231.7C41.0385 237.2 42.8385 239.5 48.9885 239.5C71.8885 239.5 109.138 214.55 119.788 196.1C120.438 194.95 120.888 193.95 121.288 192.95C122.388 192.8 123.388 192.8 124.538 192.8C134.338 192.8 140.438 196.3 140.238 202.95C121.288 213.9 100.088 229.7 76.9385 248.65C71.9885 252.65 67.2885 256.45 62.6385 259.95L62.5885 260ZM139.938 231.7C138.588 229.7 138.738 226.55 141.238 222.2C146.338 213.4 156.888 207.75 162.838 207.75C165.988 207.75 167.038 209.4 165.088 212.75C161.938 218.25 152.438 224.9 139.888 231.7H139.938ZM145.788 233.85C143.638 233.85 141.938 233.35 140.738 232.5C153.538 225.5 163.138 218.35 166.488 212.55C168.888 208.4 167.188 206.4 163.538 206.4C157.238 206.4 145.588 212.2 139.638 222.5C137.038 227 136.638 230.3 138.188 232.5C119.588 242.3 94.7885 251.95 72.2885 257.6L81.3885 250.45C104.238 231.85 121.638 214.85 140.138 204.05C139.888 206.2 139.038 208.85 137.388 211.7C128.488 227.15 109.938 235.45 101.288 237.45C100.688 237.6 100.338 237.95 100.138 238.3C99.8385 238.8 100.038 239.3 100.838 239.15C109.388 237 129.388 227.85 138.688 211.7C140.488 208.55 141.588 205.55 141.688 203.05C158.238 193.55 173.038 188.1 185.138 188.1C196.238 188.1 198.538 195.1 194.788 201.55C187.888 213.5 159.438 233.8 145.688 233.8L145.788 233.85Z" fill="#001820"/>
<g id="Group_2">
<path id="Vector_2" d="M134.639 299.1C162.239 291.25 191.539 271.75 222.189 246.25C223.789 244.9 225.539 243.6 227.239 242.1L229.539 240.1C247.689 225 265.689 209 278.539 200.55C294.439 189.9 306.889 183.6 313.989 183.6C318.289 183.6 318.389 185.45 316.489 188.75C313.589 193.75 295.789 207.4 286.089 213C270.389 222.1 251.539 231.45 234.489 238.1C234.489 238.1 234.489 238.15 234.439 238.2C233.989 238.5 233.589 238.8 233.139 239.05C232.539 239.45 231.939 239.9 231.339 240.3C231.189 240.4 231.039 240.5 230.889 240.6C248.989 233.85 269.489 223.75 286.489 213.95C303.239 204.15 314.939 196.8 318.739 190.2C321.539 185.4 320.539 182.2 314.689 182.2C299.589 182.2 258.439 210.45 218.189 243.7L216.139 245.55C189.439 267.5 167.489 285.55 144.489 294.8" fill="#001820"/>
<path id="Vector_3" d="M314.739 216C314.239 216 307.489 218.5 303.839 220C256.389 239.3 238.939 260.7 188.639 292.75L188.539 292.6C222.589 266 250.639 232.3 270.589 218.65C271.739 217.8 271.439 217.5 270.739 217.5C263.789 217.5 228.639 240.45 183.939 272.85C179.639 276 175.439 279.05 171.239 282.1H171.939C171.939 282.1 172.139 282 172.289 281.9C172.389 281.85 172.489 281.8 172.589 281.75C172.689 281.7 172.489 281.75 172.489 281.75C172.489 281.75 172.489 281.75 172.539 281.75C172.639 281.7 172.789 281.6 172.889 281.55C173.639 281.15 174.389 280.85 175.089 280.55C178.139 278.35 181.189 276.1 184.339 273.85C224.589 244.6 257.189 222.8 268.039 219V219.15C229.739 241.45 214.789 268.8 186.689 292.6C183.739 295.1 179.439 298.25 179.189 298.75C178.989 299.1 179.139 299.45 179.439 299.45C180.089 299.45 184.889 296.3 187.689 294.6C239.939 261.5 260.789 236.45 308.589 219.2V219.4C286.989 230.55 222.089 268.25 200.939 305C198.589 309.05 197.089 312.55 195.889 315.75L203.289 308.35C226.289 268.45 298.489 225.2 314.289 217.4C314.689 217.25 315.089 216.9 315.189 216.75C315.389 216.4 315.239 216.1 314.739 216.1V216Z" fill="#001820"/>
</g>
<g id="Group_3">
<path id="Vector_4" d="M206.188 299.1C233.788 291.25 263.088 271.75 293.738 246.25C295.338 244.9 297.088 243.6 298.788 242.1L301.088 240.1C319.238 225 337.238 209 350.088 200.55C365.988 189.9 378.438 183.6 385.538 183.6C389.838 183.6 389.938 185.45 388.038 188.75C385.138 193.75 367.338 207.4 357.638 213C341.938 222.1 323.088 231.45 306.038 238.1C306.038 238.1 306.038 238.15 305.988 238.2C305.538 238.5 305.138 238.8 304.688 239.05C304.088 239.45 303.488 239.9 302.888 240.3C302.738 240.4 302.588 240.5 302.438 240.6C320.538 233.85 341.038 223.75 358.038 213.95C374.788 204.15 386.488 196.8 390.288 190.2C393.088 185.4 392.088 182.2 386.238 182.2C371.138 182.2 329.988 210.45 289.738 243.7L287.688 245.55C260.988 267.5 239.038 285.55 216.038 294.8" fill="#001820"/>
<path id="Vector_5" d="M274.888 308.3C297.888 268.4 370.088 225.15 385.888 217.35C386.288 217.2 386.688 216.85 386.788 216.7C386.988 216.35 386.838 216.05 386.338 216.05C385.838 216.05 379.088 218.55 375.438 220.05C327.988 239.35 310.538 260.75 260.238 292.8L260.138 292.65C294.188 266.05 322.238 232.35 342.188 218.7C343.338 217.85 343.038 217.55 342.338 217.55C335.388 217.55 300.238 240.5 255.538 272.9C251.238 276.05 247.038 279.1 242.838 282.15H244.638C248.388 279.4 252.138 276.7 255.988 273.9C296.238 244.65 328.838 222.85 339.688 219.05V219.2C301.388 241.5 286.438 268.85 258.338 292.65C255.388 295.15 251.088 298.3 250.838 298.8C250.638 299.15 250.788 299.5 251.088 299.5C251.738 299.5 256.538 296.35 259.338 294.65C311.588 261.55 332.438 236.5 380.238 219.25V219.45C358.638 230.6 293.738 268.3 272.588 305.05C270.238 309.1 268.738 312.6 267.538 315.8" fill="#001820"/>
</g>
<g id="Group_4">
<path id="Vector_6" d="M365.388 299.1C392.988 291.25 422.288 271.75 452.938 246.25C454.538 244.9 456.288 243.6 457.988 242.1L460.288 240.1C478.438 225 496.438 209 509.288 200.55C525.188 189.9 537.638 183.6 544.738 183.6C549.038 183.6 549.138 185.45 547.238 188.75C544.338 193.75 526.538 207.4 516.838 213C501.138 222.1 482.288 231.45 465.238 238.1C465.238 238.1 465.238 238.15 465.188 238.2C464.738 238.5 464.338 238.8 463.888 239.05C463.288 239.45 462.688 239.9 462.088 240.3C461.938 240.4 461.788 240.5 461.638 240.6C479.738 233.85 500.238 223.75 517.238 213.95C533.988 204.15 545.688 196.8 549.488 190.2C552.288 185.4 551.288 182.2 545.438 182.2C530.338 182.2 489.188 210.45 448.938 243.7L446.888 245.55C420.188 267.5 398.238 285.55 375.238 294.8" fill="#001820"/>
<path id="Vector_7" d="M434.089 308.3C457.089 268.4 529.289 225.15 545.089 217.35C545.489 217.2 545.889 216.85 545.989 216.7C546.189 216.35 546.039 216.05 545.539 216.05C545.039 216.05 538.289 218.55 534.639 220.05C487.189 239.35 469.739 260.75 419.439 292.8L419.339 292.65C453.389 266.05 481.439 232.35 501.389 218.7C502.539 217.85 502.239 217.55 501.539 217.55C494.589 217.55 459.439 240.5 414.739 272.9C410.439 276.05 406.239 279.1 402.039 282.15H403.839C407.589 279.4 411.339 276.7 415.189 273.9C455.439 244.65 488.039 222.85 498.889 219.05V219.2C460.589 241.5 445.639 268.85 417.539 292.65C414.589 295.15 410.289 298.3 410.039 298.8C409.839 299.15 409.989 299.5 410.289 299.5C410.939 299.5 415.739 296.35 418.539 294.65C470.789 261.55 491.639 236.5 539.439 219.25V219.45C517.839 230.6 452.939 268.3 431.789 305.05C429.439 309.1 427.939 312.6 426.739 315.8" fill="#001820"/>
</g>
<path id="Vector_8" d="M454.238 224.5C465.738 204.55 461.138 195.25 445.538 195.25C413.188 195.25 345.338 235 326.188 268.25C318.788 281.05 324.088 288.05 334.038 288.05C330.188 294.7 329.688 297.35 329.188 300.2C329.188 300.55 329.188 300.7 329.588 300.7C330.088 300.7 330.438 300.4 330.638 300.05C331.138 299.2 330.488 296.55 335.388 288.1C372.288 286.75 414.338 248.7 423.788 232.25C427.438 225.95 427.288 220.45 420.988 220.45C401.088 220.45 353.338 256.7 334.838 286.8C325.538 286.8 320.738 280.15 327.538 268.35C346.288 235.75 412.938 196.7 444.788 196.7C459.738 196.7 461.288 205.2 452.788 219.95C435.438 250.05 385.788 290.45 353.588 305.75C352.938 303.75 351.138 301.9 345.838 301.9C338.038 301.9 327.338 306.05 324.738 310.55C323.488 312.7 324.288 314.55 328.088 314.55C332.588 314.55 341.338 312.25 351.988 307.6L353.538 306.95C385.788 293.3 434.638 258.55 454.188 224.65L454.238 224.5ZM420.188 221.7C425.838 221.7 425.038 226.5 421.788 232.15C415.838 242.45 365.838 284.7 336.138 286.7C354.238 257.25 400.638 221.7 420.188 221.7ZM328.888 313.15C325.888 313.15 325.238 312 326.188 310.3C328.288 306.65 337.588 303.15 345.238 303.15C349.238 303.15 351.638 304.15 352.038 306.3C341.638 310.8 333.188 313.1 328.888 313.1V313.15Z" fill="#001820"/>
<path id="Vector_9" d="M194.489 226.4C191.039 232.4 193.089 235.2 198.389 235.2C213.489 235.2 241.089 218.05 250.089 202.45C251.139 200.6 251.989 198.6 252.439 196.65C263.239 197.15 265.139 203.95 260.089 212.75C259.739 213.35 259.189 214 258.739 214.65C259.439 214.25 260.089 213.9 260.789 213.6C260.939 213.3 261.239 213.05 261.389 212.75C266.839 203.25 265.189 195.8 252.689 195.3C253.439 189.65 250.589 184.8 241.289 184.8C220.239 184.8 179.339 205.1 165.539 229.05C163.439 232.7 162.889 235.7 163.339 238.05C151.939 241.7 136.989 248.35 123.639 257.15L122.089 258.15C111.089 265.45 101.189 274.25 95.7388 283.75C87.4888 298.05 90.8888 306.85 107.139 306.85C109.639 306.85 112.739 306.35 116.539 305.5C114.939 314.3 119.139 319.95 128.439 319.95C137.739 319.95 146.789 315.45 147.289 314.65C147.589 314.15 147.439 313.8 147.089 313.8C146.439 313.8 139.189 318.6 129.239 318.6C120.639 318.6 116.539 313.3 117.939 305.15C139.089 299.85 175.539 283.2 185.889 265.25C189.839 258.45 187.339 254.95 178.889 254.95C164.289 254.95 134.189 271.25 120.939 294.2C118.839 297.85 117.589 301.2 116.739 304.35C113.389 305 110.239 305.5 107.939 305.5C92.6888 305.5 91.3388 297.2 94.8888 291.05C105.989 271.75 147.889 244.8 163.689 239C164.889 241.8 168.189 243.3 172.139 243.3C176.439 243.3 180.389 241.65 181.739 239.3C183.089 236.95 181.389 235 177.439 235C174.789 235 170.339 235.85 165.039 237.5C165.189 236.35 165.639 235.35 166.289 234.15C177.089 215.35 222.839 186.1 240.589 186.1C248.889 186.1 251.639 190.25 251.239 195.25C240.839 195.4 225.889 200.05 213.439 208.2C205.339 213.35 198.089 220.2 194.539 226.35L194.489 226.4ZM179.239 256.35C185.189 256.35 188.039 259.2 184.539 265.35C174.489 282.8 138.839 298.95 118.089 304.1C118.839 301.95 119.439 300.3 121.489 296.8C128.939 283.85 165.989 256.4 179.239 256.4V256.35ZM176.889 236.2C179.889 236.2 181.439 237.55 180.489 239.2C179.439 241.05 176.089 242.2 172.939 242.2C169.439 242.2 166.389 240.85 165.089 238.55C169.839 237.2 174.239 236.2 176.889 236.2ZM251.089 196.65C250.589 198.65 249.789 200.65 248.739 202.45C240.139 217.4 213.539 233.85 199.139 233.85C194.489 233.85 194.139 231.85 196.639 227.55C199.139 223.25 208.089 216.6 215.689 211.75C227.889 203.8 240.639 196.65 251.089 196.65Z" fill="#001820"/>
</g>
</g>
</g>
</g>
</g>
</g>
<defs>
<clipPath id="clip0_598_11795">
<rect width="500" height="500" rx="250" fill="white"/>
</clipPath>
</defs>
</svg>
