<svg width="10" height="11" viewBox="0 0 10 11" fill="none" xmlns="http://www.w3.org/2000/svg">
<rect y="0.5" width="10" height="10" fill="#D05000"/>
<path d="M7.28842 2.84217C7.39871 2.9108 7.4847 3.01213 7.54658 3.1461C7.60834 3.28006 7.63931 3.4416 7.63931 3.63079C7.63931 3.75476 7.62524 3.88866 7.59705 4.03262L7.32436 5.41023C7.32187 5.42263 7.31165 5.43149 7.29977 5.43149H6.38647C6.37052 5.43149 6.35864 5.4158 6.36195 5.3991L6.63251 4.01997C6.64345 3.97146 6.64894 3.922 6.64894 3.87184C6.64894 3.78139 6.62743 3.71238 6.5844 3.66463C6.54138 3.61694 6.47684 3.59303 6.39079 3.59303C6.29226 3.59303 6.2136 3.62446 6.15497 3.68727C6.09652 3.74983 6.0516 3.83863 6.02034 3.95362C6.02016 3.95438 6.01998 3.9552 6.01981 3.9559L5.73092 5.41023C5.72844 5.42263 5.71821 5.43149 5.70639 5.43149H4.79315C4.7772 5.43149 4.76526 5.41574 4.76857 5.39904L5.27654 2.83825C5.27902 2.82586 5.28925 2.81694 5.30107 2.81694H6.20243C6.21845 2.81694 6.23033 2.83275 6.22696 2.84951L6.18748 3.04515C6.18192 3.0726 6.21443 3.08949 6.23121 3.06792C6.40166 2.84869 6.6269 2.73907 6.90704 2.73907C7.05095 2.73907 7.17808 2.77348 7.28836 2.84211" fill="#FFF0E3"/>
<path d="M5.31059 5.61023L4.79315 8.21871C4.78984 8.23541 4.80178 8.25116 4.81774 8.25116H5.73098C5.7428 8.25116 5.75302 8.2423 5.7555 8.2299L5.98104 7.10176C5.98115 7.10119 5.98127 7.10055 5.98145 7.09999C6.02997 6.90947 6.1097 6.76583 6.22058 6.66887C6.33169 6.57184 6.4701 6.5232 6.63594 6.5232H7.08322C7.0951 6.5232 7.10533 6.51434 7.10775 6.50188L7.2889 5.58885H6.8542C6.60893 5.58885 6.40698 5.72712 6.24818 6.00359C6.23334 6.0294 6.19628 6.01396 6.20214 5.9843L6.27288 5.62118C6.27613 5.60454 6.26419 5.58879 6.24829 5.58879H5.33511C5.32323 5.58879 5.31301 5.59771 5.31059 5.61011" fill="#FFF0E3"/>
<path d="M3.85172 4.55773C3.77099 4.52004 3.70976 4.46741 3.66797 4.39986C3.62619 4.33243 3.60527 4.25546 3.60527 4.16906C3.60527 4.06071 3.63163 3.96608 3.68452 3.88519C3.7373 3.80435 3.81064 3.74268 3.90462 3.70024C3.99847 3.65786 4.10414 3.63667 4.22152 3.63667H4.66419C4.83464 3.63667 4.98186 3.50903 5.01727 3.33054L5.11271 2.84945C5.11602 2.83275 5.10415 2.81694 5.08819 2.81694H4.1159C3.83269 2.81694 3.58364 2.87703 3.36874 2.99714C3.15379 3.11725 2.98724 3.28721 2.86916 3.50701C2.75101 3.72687 2.69197 3.98044 2.69197 4.26779C2.69197 4.49391 2.73494 4.69499 2.82075 4.87076C2.90657 5.04667 3.03381 5.18398 3.20255 5.28297C3.37128 5.3819 3.57595 5.43136 3.81662 5.43136H4.58015C4.59203 5.43136 4.60225 5.4225 4.60468 5.41011L4.75615 4.64654C4.75946 4.62984 4.74752 4.61409 4.73157 4.61409H4.14002C4.02849 4.61409 3.9324 4.59524 3.85172 4.55761" fill="#FFF0E3"/>
<path d="M3.4016 7.37627C3.3415 7.33813 3.29475 7.2843 3.26135 7.21473C3.22796 7.14515 3.21129 7.06514 3.21129 6.97456C3.21129 6.87741 3.22973 6.78544 3.26667 6.69872C3.30361 6.61201 3.35775 6.54192 3.42897 6.4886C3.50024 6.43522 3.58482 6.40853 3.68275 6.40853C3.76112 6.40853 3.82985 6.42738 3.88913 6.46501C3.94835 6.50264 3.99416 6.55653 4.02672 6.62655C4.05923 6.69664 4.07548 6.77785 4.07548 6.87026C4.07548 6.8948 4.07412 6.91909 4.07158 6.94306H3.48665C3.46809 6.94306 3.45722 6.96438 3.46685 6.98177L3.71206 7.42168C3.67991 7.42953 3.64611 7.43345 3.61059 7.43345C3.53133 7.43345 3.46165 7.41441 3.40154 7.37627M4.78405 6.16931C4.68943 5.98512 4.55355 5.83971 4.37643 5.73307C4.1993 5.62649 3.99232 5.57317 3.75545 5.57317C3.48204 5.57317 3.2396 5.63863 3.0282 5.7695C2.81679 5.90043 2.65326 6.07899 2.5376 6.30524C2.42188 6.53149 2.36407 6.78209 2.36407 7.05685C2.36407 7.28076 2.41443 7.48512 2.5152 7.66988C2.61591 7.8547 2.75562 8.00037 2.93441 8.10701C3.11319 8.21365 3.3149 8.26697 3.53961 8.26697C3.80633 8.26697 4.04516 8.20119 4.25603 8.06969C4.46691 7.93819 4.63127 7.75963 4.74918 7.53395C4.86703 7.30827 4.92601 7.05919 4.92601 6.78677C4.92601 6.55932 4.87867 6.3535 4.78405 6.16931Z" fill="#FFF0E3"/>
<path d="M6.43949 8.2053C6.38807 8.17469 6.34812 8.13275 6.31951 8.07943C6.29091 8.02617 6.2766 7.96659 6.2766 7.90087C6.2766 7.82263 6.29433 7.75065 6.32985 7.68493C6.36531 7.61921 6.41407 7.56729 6.47601 7.52934C6.53801 7.49138 6.60763 7.47235 6.68499 7.47235C6.75491 7.47235 6.81526 7.4874 6.86614 7.51738C6.91697 7.54742 6.95592 7.58911 6.98293 7.64236C7.00994 7.69569 7.02347 7.7552 7.02347 7.82092C7.02347 7.90144 7.00627 7.97431 6.97182 8.03946C6.93736 8.10467 6.88919 8.15622 6.82719 8.19423C6.7652 8.23218 6.69504 8.25116 6.61661 8.25116C6.54989 8.25116 6.49085 8.23591 6.43943 8.2053" fill="#FFF0E3"/>
</svg>
