<svg width="67" height="24" viewBox="0 0 67 24" fill="none" xmlns="http://www.w3.org/2000/svg">
<g clip-path="url(#clip0_321_615)">
<path d="M4.05 5.67008H4.86M4.05 5.67008V9.31508V14.2917M4.05 5.67008C5.89483 12.5551 11.6733 27.5401 24.3 5.67008M4.86 5.67008H6.48M4.86 5.67008V8.10008M4.86 5.67008C4.86 7.56385 4.12809 10.4064 1.93089 12.7717M6.48 5.67008V4.45508M6.48 5.67008H8.1M8.91 5.67008H8.1M8.91 5.67008C9.66697 8.49512 13.4145 24.526 23.49 12.7759M8.91 5.67008V17.0101M8.1 22.6801H8.91V17.0101M8.1 22.6801V19.507M8.1 22.6801L4.86 21.0601M8.1 5.67008V6.48008M4.05 17.8201V22.6801H4.86V21.0601M4.05 17.8201H2.9609L2.85472 17.0101H4.05M4.05 17.8201V17.0101M8.1 6.48008L4.86 8.10008M8.1 6.48008V7.45052M8.1 9.72008L4.86 8.10008M8.1 9.72008L4.86 11.3401M8.1 9.72008V12.9601M8.1 9.72008V7.45052M9.72 22.6801C10.044 22.6801 10.395 22.1401 10.53 21.8701C10.665 22.1401 11.016 22.6801 11.34 22.6801C11.664 22.6801 12.015 22.1401 12.15 21.8701C12.285 22.1401 12.636 22.6801 12.96 22.6801C13.284 22.6801 13.635 22.1401 13.77 21.8701C13.905 22.1401 14.256 22.6801 14.58 22.6801C14.904 22.6801 15.255 22.1401 15.39 21.8701C15.525 22.1401 15.876 22.6801 16.2 22.6801C16.524 22.6801 16.875 22.1401 17.01 21.8701C17.145 22.1401 17.496 22.6801 17.82 22.6801C18.144 22.6801 18.495 22.1401 18.63 21.8701C18.765 22.1401 19.116 22.6801 19.44 22.6801C19.764 22.6801 20.115 22.1401 20.25 21.8701C20.385 22.1401 20.736 22.6801 21.06 22.6801C21.384 22.6801 21.735 22.1401 21.87 21.8701C22.005 22.1401 22.356 22.6801 22.68 22.6801M4.86 8.10008V11.3401M4.86 11.3401L8.1 12.9601M4.86 11.3401V13.1791M8.1 12.9601L4.86 14.5801M8.1 12.9601V16.2001M4.86 14.5801L8.1 16.2001M4.86 14.5801V17.0101M4.86 14.5801V13.1791M8.1 16.2001L4.86 17.8201M8.1 16.2001V17.0101M4.86 17.8201L8.1 19.4401M4.86 17.8201V21.0601M4.86 17.8201H8.1M4.86 17.8201V17.0101M8.1 19.4401V19.507M8.1 19.4401V17.8201M8.1 19.507L4.86 21.0601M8.1 17.8201H23.49M8.1 17.8201V17.0101M23.49 5.67008H24.3M23.49 5.67008V12.7759M23.49 5.67008C23.625 9.45008 25.758 17.0101 33.21 17.0101H28.35M24.3 5.67008H25.92M24.3 5.67008V8.10008M25.92 5.67008V4.45508M25.92 5.67008H27.54M27.54 22.6801H28.35V17.0101M27.54 22.6801V19.507M27.54 22.6801L24.3 21.0601M27.54 5.67008H28.35V7.75218M27.54 5.67008V6.48008M23.49 17.8201V22.6801H24.3V21.0601M23.49 17.8201V17.0101M27.54 6.48008L24.3 8.10008M27.54 6.48008V7.03921M27.54 9.72008L24.3 8.10008M27.54 9.72008L24.3 11.3401M27.54 9.72008V12.9601M27.54 9.72008V7.03921M24.3 8.10008V11.3401M24.3 11.3401L27.54 12.9601M24.3 11.3401V11.7881M27.54 12.9601L24.3 14.5801M27.54 12.9601V16.2001M24.3 14.5801L27.54 16.2001M24.3 14.5801V11.7881M24.3 14.5801V17.0101M27.54 16.2001L24.3 17.8201M27.54 16.2001V17.0101M24.3 17.8201L27.54 19.4401M24.3 17.8201V21.0601M24.3 17.8201H27.54M24.3 17.8201V17.0101M27.54 19.4401V19.507M27.54 19.4401V17.8201M27.54 19.507L24.3 21.0601M27.54 17.8201H33.21M27.54 17.8201V17.0101M23.49 12.7759V17.0101M24.3 11.7881C25.3177 10.4936 26.3966 8.92344 27.54 7.03921M4.05 17.0101V14.5801V14.2917M4.86 17.0101H8.1M8.91 17.0101H23.49M24.3 17.0101H27.54M28.35 17.0101V7.75218M28.35 7.75218C29.3585 9.98953 30.78 12.9601 33.21 14.5655M0 8.10008C0.515123 8.93715 1.27594 10.4936 1.93089 12.7717M3.24 22.8723C3.24 20.1829 3.00189 17.8444 2.64425 15.856M8.1 7.45052C7.23751 9.25103 6.09024 11.3848 4.86 13.1791M4.05 14.2917C3.58338 14.8915 3.11135 15.4245 2.64425 15.856M1.93089 12.7717C2.19319 13.684 2.4385 14.7121 2.64425 15.856" stroke="#8E8E8E" stroke-width="0.405"/>
<path d="M33.2104 7.29012L35.6404 4.86012V1.62012H36.4504V4.86012L38.8804 7.29012M33.2104 7.29012V11.3401M33.2104 7.29012H38.8804M33.2104 11.3401H32.4004V13.7701H33.2104M33.2104 11.3401H38.8804M33.2104 13.7701V22.6801H38.8804V13.7701M33.2104 13.7701H38.8804M38.8804 13.7701H39.6904V11.3401H38.8804M38.8804 11.3401V7.29012M34.8304 14.5801V16.2001H35.6404V14.5801H34.8304ZM36.4504 14.5801V16.2001H37.2604V14.5801H36.4504ZM36.4504 17.0101V18.6301H37.2604V17.0101H36.4504ZM34.8304 17.0101V18.6301H35.6404V17.0101H34.8304ZM34.8304 19.4401V21.0601H35.6404V19.4401H34.8304ZM36.4504 19.4401V21.0601H37.2604V19.4401H36.4504Z" stroke="#8E8E8E" stroke-width="0.405"/>
<circle cx="36.0451" cy="9.3151" r="1.0125" stroke="#8E8E8E" stroke-width="0.405"/>
<path d="M47.7905 12.9599L47.3855 12.1499L46.9805 12.9599H46.1705L45.7655 12.1499L45.3605 12.9599H44.5505L44.1455 12.1499L43.7405 12.9599H42.9305L42.5255 12.1499L42.1205 12.9599H41.3105V22.6799H65.6105V12.9599H64.8005L64.3955 12.1499L63.9905 12.9599H63.1805L62.7755 12.1499L62.3705 12.9599H61.5605L61.1555 12.1499L60.7505 12.9599H59.9405L59.5355 12.1499L59.1305 12.9599M47.7905 12.9599V11.3399H48.6005V8.90986C48.6005 8.36986 48.7625 7.28986 49.4105 7.28986C50.0585 7.28986 50.2205 8.36986 50.2205 8.90986V9.71986H51.0305V8.09986H51.8405C51.8405 7.01986 52.1645 4.85986 53.4605 4.85986C54.7565 4.85986 55.0805 7.01986 55.0805 8.09986H55.8905M47.7905 12.9599V17.8199M59.1305 12.9599V11.3399H58.3205V8.90986C58.3205 8.36986 58.1585 7.28986 57.5105 7.28986M59.1305 12.9599V17.8199M52.6505 14.5799V16.1999H54.2705V14.5799M52.6505 14.5799H54.2705M52.6505 14.5799C52.7855 13.7699 53.1365 12.1499 53.4605 12.1499C53.7845 12.1499 54.1355 13.7699 54.2705 14.5799M47.7905 20.2499V18.6299V17.8199M47.7905 20.2499C52.219 19.2646 54.7021 19.24 59.1305 20.2499M47.7905 20.2499V21.0599M59.1305 20.2499V18.6299V17.8199M59.1305 20.2499V21.0599M59.1305 17.8199C54.6416 16.7684 52.1568 16.7757 47.7905 17.8199M47.7905 22.6799V21.0599M59.1305 22.6799V21.0599M56.7005 16.1999H57.5105M56.7005 16.1999V5.66986M56.7005 16.1999L55.8905 17.0099M57.5105 16.1999V5.66986H56.7005M57.5105 16.1999L56.7005 17.0099H55.8905M56.7005 5.66986L55.8905 6.47986V17.0099M47.7905 21.0599C52.219 20.0809 54.7022 20.0776 59.1305 21.0599M42.9305 14.5799V16.1999H43.7405V14.5799H42.9305ZM45.3605 14.5799V16.1999H46.1705V14.5799H45.3605ZM45.3605 17.0099V18.6299H46.1705V17.0099H45.3605ZM42.9305 17.0099V18.6299H43.7405V17.0099H42.9305ZM53.0555 7.28986V8.90986H53.8655V7.28986H53.0555ZM51.8405 10.5299H55.0805V17.0099H51.8405V10.5299ZM60.7505 14.5799V16.1999H61.5605V14.5799H60.7505ZM63.1805 14.5799V16.1999H63.9905V14.5799H63.1805ZM63.1805 17.0099V18.6299H63.9905V17.0099H63.1805ZM60.7505 17.0099V18.6299H61.5605V17.0099H60.7505Z" stroke="#8E8E8E" stroke-width="0.405"/>
</g>
<defs>
<clipPath id="clip0_321_615">
<rect width="66.42" height="23.49" fill="white"/>
</clipPath>
</defs>
</svg>
