<svg width="10" height="11" viewBox="0 0 10 11" fill="none" xmlns="http://www.w3.org/2000/svg">
<path d="M10.0001 0.5H0.00012207V10.5H10.0001V0.5Z" fill="black"/>
<path d="M2.19662 4.20043C1.73246 4.20043 1.4171 3.86286 1.4171 3.38759C1.4171 2.90567 1.73246 2.5681 2.19662 2.5681C2.66078 2.5681 2.97836 2.90789 2.97836 3.38759C2.97836 3.86286 2.66078 4.20043 2.19662 4.20043ZM2.19662 3.89617C2.44535 3.89617 2.60081 3.69407 2.60081 3.38537C2.60081 3.07223 2.44535 2.87236 2.19662 2.87236C1.94788 2.87236 1.79464 3.07445 1.79464 3.38759C1.79464 3.69629 1.94788 3.89617 2.19662 3.89617ZM3.94374 4.20043C3.78605 4.20043 3.65725 4.13158 3.59284 4.01165H3.58174V4.16711H3.25305V2.56144H3.59728V3.16995H3.61061C3.67723 3.05224 3.79716 2.99006 3.94374 2.99006C4.22356 2.99006 4.419 3.21437 4.419 3.59413C4.419 3.97834 4.22801 4.20043 3.94374 4.20043ZM3.82603 3.92726C3.96594 3.92726 4.06588 3.82066 4.06588 3.59413C4.06588 3.36761 3.96594 3.26323 3.82603 3.26323C3.68612 3.26323 3.58396 3.36983 3.58396 3.59413C3.58396 3.82288 3.68612 3.92726 3.82603 3.92726ZM4.65373 4.53356H4.52492V4.24929H4.57156C4.63374 4.24929 4.67594 4.22041 4.67594 4.15157V3.02337H5.02239V4.16934C5.02239 4.43362 4.86693 4.53356 4.65373 4.53356ZM4.84695 2.88346C4.73146 2.88346 4.64707 2.79685 4.64707 2.68136C4.64707 2.56588 4.73368 2.48149 4.84695 2.48149C4.96465 2.48149 5.04904 2.5681 5.04904 2.68136C5.04904 2.79685 4.96465 2.88346 4.84695 2.88346ZM5.84791 4.20043C5.49257 4.20043 5.26827 3.9628 5.26827 3.59191C5.26827 3.23658 5.50146 2.99006 5.83681 2.99006C6.17882 2.99006 6.40979 3.21881 6.40979 3.55416C6.40979 3.60524 6.40535 3.65188 6.39868 3.68963H5.61694C5.61916 3.85619 5.71022 3.95835 5.85679 3.95835C5.94341 3.95835 6.00559 3.92282 6.03224 3.86286H6.3898C6.32984 4.07828 6.12996 4.20043 5.84791 4.20043ZM6.05667 3.47643C6.05445 3.31209 5.97006 3.21215 5.83903 3.21215C5.70578 3.21215 5.62138 3.30542 5.61694 3.47643H6.05667ZM7.16887 4.20043C6.81131 4.20043 6.58256 3.95835 6.58256 3.59413C6.58256 3.22991 6.80909 2.99006 7.17331 2.99006C7.47979 2.99006 7.68633 3.17661 7.71076 3.41869H7.35542C7.33765 3.32097 7.26659 3.26323 7.16665 3.26323C7.02007 3.26323 6.9379 3.37871 6.9379 3.59413C6.9379 3.81178 7.02451 3.92726 7.16665 3.92726C7.26436 3.92726 7.33321 3.8784 7.35764 3.7718H7.71076C7.67966 4.0161 7.48423 4.20043 7.16887 4.20043ZM8.36154 4.18932C8.14611 4.18932 8.01953 4.08938 8.01953 3.86508V3.29432H7.8574V3.04114H7.95956C8.02397 3.04114 8.04618 3.01671 8.04618 2.95453V2.74799H8.36598V3.02337H8.55697V3.29432H8.36598V3.7607C8.36598 3.84731 8.39707 3.88284 8.46814 3.88284C8.49257 3.88284 8.51922 3.88062 8.55697 3.87174V4.15601C8.49923 4.176 8.43705 4.18932 8.36154 4.18932Z" fill="white"/>
<path d="M1.87894 7.70293C2.0455 7.70293 2.13433 7.57857 2.13433 7.42088C2.13433 7.30318 2.08547 7.22545 2.0033 7.11885L1.90336 6.99226C1.79232 6.85012 1.72348 6.73908 1.72348 6.56586C1.72348 6.2616 1.95889 6.09059 2.20096 6.09059C2.37641 6.09059 2.44747 6.1661 2.50522 6.1661C2.53409 6.1661 2.55185 6.15278 2.56296 6.1128H2.61404L2.52298 6.53921H2.46746C2.47857 6.2727 2.34754 6.18387 2.22317 6.18387C2.09436 6.18387 2.02551 6.28159 2.02551 6.40595C2.02551 6.52144 2.07215 6.5814 2.15654 6.69244L2.2476 6.81015C2.38085 6.9856 2.45858 7.1033 2.45858 7.28097C2.45858 7.53859 2.23871 7.80287 1.8967 7.80287C1.67017 7.80287 1.62354 7.71848 1.57468 7.71848C1.55025 7.71848 1.5236 7.73625 1.51472 7.77844H1.46141L1.57024 7.27875H1.62576C1.60799 7.54303 1.69016 7.70293 1.87894 7.70293ZM2.49815 7.77844L2.84017 6.4104C2.87792 6.25494 2.85793 6.23717 2.7691 6.25494L2.78242 6.20608L3.28656 6.01953L3.11111 6.7302C3.2377 6.59251 3.35985 6.517 3.46645 6.517C3.63079 6.517 3.70186 6.67468 3.64634 6.88344L3.46423 7.54081C3.44646 7.60077 3.46645 7.62298 3.49532 7.62298C3.51753 7.62298 3.54862 7.60966 3.57527 7.59189L3.59526 7.63187C3.48866 7.71404 3.34874 7.80065 3.21771 7.80065C3.10889 7.80065 3.06669 7.72736 3.10223 7.59411L3.29988 6.879C3.32431 6.78572 3.3021 6.74797 3.25769 6.74797C3.21105 6.74797 3.14664 6.78794 3.08002 6.85012L2.84905 7.77844H2.49815ZM4.13642 7.79843C3.89656 7.79843 3.71223 7.62076 3.71223 7.32761C3.71223 6.91009 4.02093 6.52144 4.36961 6.52144C4.60058 6.52144 4.7738 6.70133 4.7738 6.99448C4.7738 7.41422 4.47399 7.79843 4.13642 7.79843ZM4.06757 7.48973C4.06757 7.64297 4.092 7.7096 4.1453 7.7096C4.26967 7.7096 4.42291 7.12773 4.42291 6.82125C4.42291 6.67468 4.4007 6.61249 4.34518 6.61249C4.21415 6.61249 4.06757 7.18103 4.06757 7.48973ZM4.6938 8.06493L4.97807 6.90565C5.02027 6.74574 4.99584 6.72798 4.91366 6.74574L4.92921 6.69689L5.42446 6.52144L5.3756 6.71909C5.49109 6.57918 5.60435 6.51922 5.70429 6.51922C5.84642 6.51922 5.95525 6.64803 5.95525 6.8901C5.95525 7.39423 5.60435 7.79177 5.27788 7.79177C5.21126 7.79177 5.15796 7.78066 5.11576 7.76068L5.04692 8.03828C5.02027 8.15155 5.04692 8.16487 5.1202 8.16487L5.1091 8.21151H4.58276L4.59608 8.16487C4.64716 8.16487 4.67159 8.14933 4.6938 8.06493ZM5.49997 6.73686C5.44445 6.73686 5.39337 6.78572 5.34451 6.84124L5.15796 7.58967C5.17572 7.69183 5.23125 7.70738 5.269 7.70738C5.42668 7.70738 5.59325 7.25876 5.59325 6.90787C5.59325 6.7946 5.55327 6.73686 5.49997 6.73686Z" fill="white"/>
<path d="M1.39062 5.42755H8.60994" stroke="white" stroke-width="0.138419" stroke-miterlimit="10"/>
</svg>
