<svg width="10" height="10" viewBox="0 0 10 10" fill="none" xmlns="http://www.w3.org/2000/svg">
<circle cx="5" cy="5" r="5" fill="#14284F"/>
<circle cx="4.99999" cy="5.00002" r="4.6" fill="#FFFCF1"/>
<path d="M2.60001 6.00002V1.40002H4.30176C4.65084 1.40002 4.94309 1.46589 5.17851 1.59761C5.41597 1.72933 5.59558 1.91045 5.71735 2.14096C5.83912 2.37148 5.90001 2.63287 5.90001 2.92513C5.90001 3.21944 5.83811 3.48186 5.7143 3.71237C5.59253 3.94083 5.41191 4.12092 5.17242 4.25264C4.93294 4.38231 4.63866 4.44714 4.28958 4.44714H3.1632V3.76177H4.17694C4.38192 3.76177 4.54936 3.72678 4.67925 3.6568C4.81117 3.58477 4.90757 3.48598 4.96846 3.36043C5.03137 3.23282 5.06283 3.08772 5.06283 2.92513C5.06283 2.76047 5.03137 2.6164 4.96846 2.49291C4.90757 2.36736 4.81117 2.27063 4.67925 2.20271C4.54936 2.13273 4.38091 2.09774 4.1739 2.09774H3.42196V6.00002H2.60001Z" fill="#14284F"/>
<path d="M5.70001 8.80005V4.30005H7.40176C7.75084 4.30005 8.04309 4.36448 8.27852 4.49334C8.51597 4.6222 8.69558 4.79938 8.81736 5.02488C8.93913 5.25038 9.00001 5.50609 9.00001 5.792C9.00001 6.07991 8.93811 6.33663 8.81431 6.56213C8.69254 6.78562 8.51191 6.96179 8.27243 7.09065C8.03295 7.2175 7.73867 7.28092 7.38959 7.28092H6.2632V6.61045H7.27695C7.48193 6.61045 7.64937 6.57622 7.77926 6.50777C7.91117 6.4373 8.00758 6.34065 8.06846 6.21783C8.13138 6.093 8.16284 5.95106 8.16284 5.792C8.16284 5.63092 8.13138 5.48998 8.06846 5.36918C8.00758 5.24636 7.91117 5.15173 7.77926 5.08528C7.64937 5.01683 7.48092 4.9826 7.27391 4.9826H6.52197V8.80005H5.70001Z" fill="#14284F"/>
<mask id="mask0_242_67" style="mask-type:alpha" maskUnits="userSpaceOnUse" x="0" y="0" width="10" height="10">
<circle cx="4.99999" cy="5.00002" r="4.6" fill="#FFFCF1"/>
</mask>
<g mask="url(#mask0_242_67)">
<path d="M3.05585 6.69995C2.87261 6.81484 2.75027 7.01754 2.75018 7.24976C2.75018 7.48198 2.87266 7.6846 3.05585 7.79956H-1.70001V6.69995H3.05585ZM5.04999 7.29956L4.1496 7.79956H3.74432C3.92744 7.68459 4.04999 7.48193 4.04999 7.24976C4.0499 7.01729 3.92691 6.81478 3.74335 6.69995H4.1496L5.04999 7.29956Z" fill="#B52519"/>
</g>
<circle cx="3.40001" cy="7.25005" r="0.45" fill="#B52519"/>
</svg>
