<svg width="38" height="9" viewBox="0 0 38 9" fill="none" xmlns="http://www.w3.org/2000/svg">
<path d="M37.6836 4.84766C37.6836 7.0568 35.8927 8.84766 33.6836 8.84766C31.4745 8.84766 29.6836 7.0568 29.6836 4.84766C29.6836 2.63852 31.4745 0.847656 33.6836 0.847656C35.8927 0.847656 37.6836 2.63852 37.6836 4.84766Z" fill="#E9F0CA"/>
<path d="M23.291 8.96484C22.7793 8.96484 22.3184 8.83398 21.9082 8.57227C21.502 8.30664 21.1816 7.92188 20.9473 7.41797C20.7129 6.91406 20.5957 6.30273 20.5957 5.58398C20.5957 4.85352 20.7148 4.23828 20.9531 3.73828C21.1953 3.23828 21.5195 2.85938 21.9258 2.60156C22.332 2.34375 22.7871 2.21484 23.291 2.21484C23.6777 2.21484 23.9941 2.2793 24.2402 2.4082C24.4863 2.53711 24.6816 2.69336 24.8262 2.87695C24.9746 3.05664 25.0879 3.22461 25.166 3.38086H25.2305V0.117188H26.7656V8.84766H25.2598V7.81055H25.166C25.084 7.9707 24.9688 8.14062 24.8203 8.32031C24.6719 8.49609 24.4746 8.64844 24.2285 8.77734C23.9824 8.90234 23.6699 8.96484 23.291 8.96484ZM23.7188 7.69922C24.0469 7.69922 24.3242 7.61133 24.5508 7.43555C24.7812 7.25586 24.957 7.00781 25.0781 6.69141C25.1992 6.37109 25.2598 6 25.2598 5.57812C25.2598 5.15234 25.1992 4.7832 25.0781 4.4707C24.9609 4.1543 24.7871 3.91016 24.5566 3.73828C24.3301 3.56641 24.0508 3.48047 23.7188 3.48047C23.3789 3.48047 23.0938 3.57031 22.8633 3.75C22.6328 3.92969 22.459 4.17773 22.3418 4.49414C22.2285 4.81055 22.1719 5.17188 22.1719 5.57812C22.1719 5.98438 22.2305 6.34766 22.3477 6.66797C22.4648 6.98828 22.6367 7.24023 22.8633 7.42383C23.0938 7.60742 23.3789 7.69922 23.7188 7.69922Z" fill="#E9F0CA"/>
<path d="M17.1328 8.97656C16.4766 8.97656 15.9102 8.83984 15.4336 8.56641C14.957 8.28906 14.5898 7.89844 14.332 7.39453C14.0781 6.89062 13.9512 6.29688 13.9512 5.61328C13.9512 4.9375 14.0781 4.3457 14.332 3.83789C14.5859 3.32617 14.9434 2.92773 15.4043 2.64258C15.8652 2.35742 16.4082 2.21484 17.0332 2.21484C17.4355 2.21484 17.8164 2.2793 18.1758 2.4082C18.5391 2.53711 18.8594 2.73633 19.1367 3.00586C19.418 3.27539 19.6387 3.61914 19.7988 4.03711C19.959 4.45117 20.0391 4.94531 20.0391 5.51953V6H14.6719V4.96289H19.2715L18.5508 5.26758C18.5508 4.89648 18.4941 4.57422 18.3809 4.30078C18.2676 4.02344 18.0996 3.80664 17.877 3.65039C17.6543 3.49414 17.377 3.41602 17.0449 3.41602C16.7129 3.41602 16.4297 3.49414 16.1953 3.65039C15.9609 3.80664 15.7832 4.01758 15.6621 4.2832C15.541 4.54492 15.4805 4.83789 15.4805 5.16211V5.88281C15.4805 6.28125 15.5488 6.62305 15.6855 6.9082C15.8262 7.18945 16.0215 7.4043 16.2715 7.55273C16.5254 7.70117 16.8203 7.77539 17.1562 7.77539C17.375 7.77539 17.5742 7.74414 17.7539 7.68164C17.9375 7.61914 18.0938 7.52539 18.2227 7.40039C18.3555 7.27148 18.457 7.11328 18.5273 6.92578L19.9688 7.0957C19.875 7.47461 19.7012 7.80664 19.4473 8.0918C19.1973 8.37305 18.875 8.5918 18.4805 8.74805C18.0898 8.90039 17.6406 8.97656 17.1328 8.97656Z" fill="#E9F0CA"/>
<path d="M10.4883 8.97656C9.83203 8.97656 9.26562 8.83984 8.78906 8.56641C8.3125 8.28906 7.94531 7.89844 7.6875 7.39453C7.43359 6.89062 7.30664 6.29688 7.30664 5.61328C7.30664 4.9375 7.43359 4.3457 7.6875 3.83789C7.94141 3.32617 8.29883 2.92773 8.75977 2.64258C9.2207 2.35742 9.76367 2.21484 10.3887 2.21484C10.791 2.21484 11.1719 2.2793 11.5312 2.4082C11.8945 2.53711 12.2148 2.73633 12.4922 3.00586C12.7734 3.27539 12.9941 3.61914 13.1543 4.03711C13.3145 4.45117 13.3945 4.94531 13.3945 5.51953V6H8.02734V4.96289H12.627L11.9062 5.26758C11.9062 4.89648 11.8496 4.57422 11.7363 4.30078C11.623 4.02344 11.4551 3.80664 11.2324 3.65039C11.0098 3.49414 10.7324 3.41602 10.4004 3.41602C10.0684 3.41602 9.78516 3.49414 9.55078 3.65039C9.31641 3.80664 9.13867 4.01758 9.01758 4.2832C8.89648 4.54492 8.83594 4.83789 8.83594 5.16211V5.88281C8.83594 6.28125 8.9043 6.62305 9.04102 6.9082C9.18164 7.18945 9.37695 7.4043 9.62695 7.55273C9.88086 7.70117 10.1758 7.77539 10.5117 7.77539C10.7305 7.77539 10.9297 7.74414 11.1094 7.68164C11.293 7.61914 11.4492 7.52539 11.5781 7.40039C11.7109 7.27148 11.8125 7.11328 11.8828 6.92578L13.3242 7.0957C13.2305 7.47461 13.0566 7.80664 12.8027 8.0918C12.5527 8.37305 12.2305 8.5918 11.8359 8.74805C11.4453 8.90039 10.9961 8.97656 10.4883 8.97656Z" fill="#E9F0CA"/>
<path d="M3.39844 8.98242C2.71875 8.98242 2.12891 8.87695 1.62891 8.66602C1.12891 8.45508 0.738281 8.14844 0.457031 7.74609C0.175781 7.33984 0.0234375 6.84766 0 6.26953H1.55859C1.58203 6.57422 1.67578 6.82812 1.83984 7.03125C2.00391 7.23047 2.21875 7.38086 2.48438 7.48242C2.75391 7.58398 3.05273 7.63477 3.38086 7.63477C3.72461 7.63477 4.02734 7.58203 4.28906 7.47656C4.55078 7.37109 4.75586 7.22461 4.9043 7.03711C5.05273 6.84961 5.12695 6.63086 5.12695 6.38086C5.12695 6.1543 5.06055 5.96875 4.92773 5.82422C4.79492 5.67578 4.61133 5.55078 4.37695 5.44922C4.14258 5.34766 3.86719 5.25781 3.55078 5.17969L2.56055 4.92188C1.8418 4.73828 1.27539 4.45898 0.861328 4.08398C0.447266 3.70508 0.240234 3.20117 0.240234 2.57227C0.240234 2.05664 0.378906 1.60742 0.65625 1.22461C0.933594 0.837891 1.3125 0.537109 1.79297 0.322266C2.27734 0.107422 2.82422 0 3.43359 0C4.05469 0 4.59961 0.107422 5.06836 0.322266C5.53711 0.537109 5.9043 0.833984 6.16992 1.21289C6.43555 1.5918 6.57422 2.02734 6.58594 2.51953H5.05664C5.01758 2.14453 4.85156 1.85547 4.55859 1.65234C4.26953 1.44531 3.88867 1.3418 3.41602 1.3418C3.08789 1.3418 2.80469 1.39062 2.56641 1.48828C2.33203 1.58594 2.15234 1.7207 2.02734 1.89258C1.90234 2.06445 1.83984 2.25977 1.83984 2.47852C1.83984 2.7207 1.91211 2.91992 2.05664 3.07617C2.20508 3.22852 2.39258 3.35156 2.61914 3.44531C2.84961 3.53906 3.08398 3.61719 3.32227 3.67969L4.13672 3.88477C4.46484 3.96289 4.78125 4.06836 5.08594 4.20117C5.39062 4.33008 5.66406 4.49414 5.90625 4.69336C6.15234 4.88867 6.3457 5.12695 6.48633 5.4082C6.63086 5.68945 6.70312 6.01953 6.70312 6.39844C6.70312 6.90625 6.57227 7.35547 6.31055 7.74609C6.04883 8.13281 5.67188 8.43555 5.17969 8.6543C4.6875 8.87305 4.09375 8.98242 3.39844 8.98242Z" fill="#E9F0CA"/>
</svg>
