<svg preserveAspectRatio="none" width="100%" height="100%" overflow="visible" style="display: block;" viewBox="0 0 66.42 23.49" fill="none" xmlns="http://www.w3.org/2000/svg">
<g id="Location-Illustration" clip-path="url(#clip0_0_29)">
<path id="Bridge" d="M4.05 14.2916V9.315V5.67H4.86M4.05 5.67C5.89483 12.555 11.6733 27.54 24.3 5.67M4.86 5.67H6.48M4.86 5.67V8.1M4.86 5.67C4.86 7.56377 4.12809 10.4063 1.93089 12.7716M6.48 5.67V4.455M6.48 5.67H8.1M23.49 12.7759C13.4145 24.526 9.66697 8.49504 8.91 5.67H8.1M8.91 5.67V17.01M4.86 21.06L8.1 22.68H8.91V17.01M8.1 22.68V19.5069M8.1 5.67V6.48M4.05 17.82V22.68H4.86V21.06M4.05 17.82H2.9609L2.85472 17.01H4.05M4.05 17.82V17.01M8.1 6.48L4.86 8.1M8.1 6.48V7.45045M8.1 9.72L4.86 8.1M8.1 9.72L4.86 11.34M8.1 9.72V12.96M8.1 9.72V7.45045M9.72 22.68C10.044 22.68 10.395 22.14 10.53 21.87C10.665 22.14 11.016 22.68 11.34 22.68C11.664 22.68 12.015 22.14 12.15 21.87C12.285 22.14 12.636 22.68 12.96 22.68C13.284 22.68 13.635 22.14 13.77 21.87C13.905 22.14 14.256 22.68 14.58 22.68C14.904 22.68 15.255 22.14 15.39 21.87C15.525 22.14 15.876 22.68 16.2 22.68C16.524 22.68 16.875 22.14 17.01 21.87C17.145 22.14 17.496 22.68 17.82 22.68C18.144 22.68 18.495 22.14 18.63 21.87C18.765 22.14 19.116 22.68 19.44 22.68C19.764 22.68 20.115 22.14 20.25 21.87C20.385 22.14 20.736 22.68 21.06 22.68C21.384 22.68 21.735 22.14 21.87 21.87C22.005 22.14 22.356 22.68 22.68 22.68M4.86 8.1V11.34M4.86 11.34L8.1 12.96M4.86 11.34V13.1791M8.1 12.96L4.86 14.58M8.1 12.96V16.2M4.86 14.58L8.1 16.2M4.86 14.58V17.01M4.86 14.58V13.1791M8.1 16.2L4.86 17.82M8.1 16.2V17.01M4.86 17.82L8.1 19.44M4.86 17.82V21.06M4.86 17.82H8.1M4.86 17.82V17.01M8.1 19.44V19.5069M8.1 19.44V17.82M8.1 19.5069L4.86 21.06M8.1 17.82H23.49M8.1 17.82V17.01M23.49 12.7759V5.67H24.3M23.49 5.67C23.625 9.45 25.758 17.01 33.21 17.01H28.35M24.3 5.67H25.92M24.3 5.67V8.1M25.92 5.67V4.455M25.92 5.67H27.54M24.3 21.06L27.54 22.68H28.35V17.01M27.54 22.68V19.5069M27.54 5.67H28.35V7.7521M27.54 5.67V6.48M23.49 17.82V22.68H24.3V21.06M23.49 17.82V17.01M27.54 6.48L24.3 8.1M27.54 6.48V7.03914M27.54 9.72L24.3 8.1M27.54 9.72L24.3 11.34M27.54 9.72V12.96M27.54 9.72V7.03914M24.3 8.1V11.34M24.3 11.34L27.54 12.96M24.3 11.34V11.788M27.54 12.96L24.3 14.58M27.54 12.96V16.2M24.3 14.58L27.54 16.2M24.3 14.58V11.788M24.3 14.58V17.01M27.54 16.2L24.3 17.82M27.54 16.2V17.01M24.3 17.82L27.54 19.44M24.3 17.82V21.06M24.3 17.82H27.54M24.3 17.82V17.01M27.54 19.44V19.5069M27.54 19.44V17.82M27.54 19.5069L24.3 21.06M27.54 17.82H33.21M27.54 17.82V17.01M23.49 12.7759V17.01M24.3 11.788C25.3177 10.4936 26.3966 8.92336 27.54 7.03914M4.05 17.01V14.58V14.2916M4.86 17.01H8.1M8.91 17.01H23.49M24.3 17.01H27.54M28.35 17.01V7.7521M28.35 7.7521C29.3585 9.98945 30.78 12.96 33.21 14.5654M3.24 22.8722C3.24 20.1828 3.00189 17.8443 2.64425 15.856C2.4385 14.712 2.19319 13.684 1.93089 12.7716C1.27594 10.4935 0.515123 8.93708 0 8.1M8.1 7.45045C7.23751 9.25096 6.09024 11.3847 4.86 13.1791M4.05 14.2916C3.58338 14.8915 3.11135 15.4244 2.64425 15.856" stroke="var(--stroke-0, #001820)" stroke-width="0.405"/>
<g id="Tower">
<path id="Vector 2" d="M33.21 11.34V7.29L35.64 4.86V1.62H36.45V4.86L38.88 7.29V11.34M33.21 7.29H38.88M33.21 11.34H32.4V13.77H33.21M33.21 11.34H38.88M33.21 13.77V22.68H38.88V13.77M33.21 13.77H38.88M38.88 13.77H39.69V11.34H38.88M34.83 14.58V16.2H35.64V14.58H34.83ZM36.45 14.58V16.2H37.26V14.58H36.45ZM36.45 17.01V18.63H37.26V17.01H36.45ZM34.83 17.01V18.63H35.64V17.01H34.83ZM34.83 19.44V21.06H35.64V19.44H34.83ZM36.45 19.44V21.06H37.26V19.44H36.45Z" stroke="var(--stroke-0, #001820)" stroke-width="0.405"/>
<circle id="Ellipse 1" cx="36.045" cy="9.315" r="1.0125" stroke="var(--stroke-0, #001820)" stroke-width="0.405"/>
</g>
<path id="Fox" d="M47.79 12.96L47.385 12.15L46.98 12.96H46.17L45.765 12.15L45.36 12.96H44.55L44.145 12.15L43.74 12.96H42.93L42.525 12.15L42.12 12.96H41.31V22.68H65.61V12.96H64.8L64.395 12.15L63.99 12.96H63.18L62.775 12.15L62.37 12.96H61.56L61.155 12.15L60.75 12.96H59.94L59.535 12.15L59.13 12.96M47.79 12.96V11.34H48.6V8.91C48.6 8.37 48.762 7.29 49.41 7.29C50.058 7.29 50.22 8.37 50.22 8.91V9.72H51.03V8.1H51.84C51.84 7.02 52.164 4.86 53.46 4.86C54.756 4.86 55.08 7.02 55.08 8.1H55.89M47.79 12.96V17.82M59.13 12.96V11.34H58.32V8.91C58.32 8.37 58.158 7.29 57.51 7.29M59.13 12.96V17.82M54.27 14.58C54.135 13.77 53.784 12.15 53.46 12.15C53.136 12.15 52.785 13.77 52.65 14.58V16.2H54.27V14.58ZM52.65 14.58H54.27M47.79 20.25V18.63V17.82M47.79 20.25C52.2184 19.2647 54.7016 19.2401 59.13 20.25M47.79 20.25V21.06M59.13 20.25V18.63V17.82M59.13 20.25V21.06M59.13 17.82C54.641 16.7685 52.1562 16.7758 47.79 17.82M47.79 22.68V21.06M59.13 22.68V21.06M56.7 16.2H57.51M56.7 16.2V5.67M56.7 16.2L55.89 17.01M55.89 17.01V6.48L56.7 5.67H57.51V16.2L56.7 17.01H55.89ZM47.79 21.06C52.2185 20.081 54.7017 20.0778 59.13 21.06M42.93 14.58V16.2H43.74V14.58H42.93ZM45.36 14.58V16.2H46.17V14.58H45.36ZM45.36 17.01V18.63H46.17V17.01H45.36ZM42.93 17.01V18.63H43.74V17.01H42.93ZM53.055 7.29V8.91H53.865V7.29H53.055ZM51.84 10.53H55.08V17.01H51.84V10.53ZM60.75 14.58V16.2H61.56V14.58H60.75ZM63.18 14.58V16.2H63.99V14.58H63.18ZM63.18 17.01V18.63H63.99V17.01H63.18ZM60.75 17.01V18.63H61.56V17.01H60.75Z" stroke="var(--stroke-0, #001820)" stroke-width="0.405"/>
</g>
<defs>
<clipPath id="clip0_0_29">
<rect width="66.42" height="23.49" fill="white"/>
</clipPath>
</defs>
</svg>
