<svg preserveAspectRatio="none" width="100%" height="100%" overflow="visible" style="display: block;" viewBox="0 0 102.384 23.49" fill="none" xmlns="http://www.w3.org/2000/svg">
<g id="Group">
<path id="Vector" d="M39.2656 7.16701C39.5425 6.89006 39.8362 6.6299 40.13 6.36974C40.2642 6.25225 40.4069 6.12637 40.5328 6.00887C40.6587 5.88299 40.793 5.7655 40.9188 5.64801C41.4392 5.16965 42.0098 4.68289 42.6225 4.33042C43.7302 2.35823 43.0757 1.14974 41.1203 1.14974C39.0306 1.14974 36.5381 2.09807 33.6847 3.71778C33.6763 2.57643 32.6273 1.93022 30.9236 1.93022C30.7306 1.93022 30.5208 1.9554 30.3194 1.9554C30.6635 0.730129 29.8578 0 28.2465 0C23.0097 0 15.1881 4.54862 12.7124 8.84547C10.8661 12.0513 12.3935 14.0906 16.2875 14.0906C17.3701 14.0906 18.6793 13.948 20.064 13.671C16.7826 16.13 13.988 17.7413 11.1262 18.698C8.95263 18.1693 7.49237 17.4727 4.79006 17.4727C1.75205 17.4727 0.476425 18.2029 0.107165 18.8407C-0.262096 19.4785 0.182695 20.0156 3.69067 20.0156C5.8307 20.0156 7.80289 19.789 9.64919 19.3442C11.2437 19.7638 13.0565 20.0995 15.507 20.0995C19.3758 20.0995 23.3874 18.5889 26.4673 16.5832L27.4492 15.9453C27.5835 15.8614 27.5583 15.7523 27.4744 15.7523C27.4352 15.7523 27.4017 15.7607 27.3737 15.7775L26.3918 16.4153C23.4881 18.312 20.1228 19.319 16.5644 19.319C14.3657 19.319 12.7963 19.0924 11.4955 18.7903C14.5419 17.7581 17.9408 16.0544 21.6166 13.3521C25.5442 12.429 29.9501 10.7253 33.2483 8.97135C33.4833 9.19794 33.8777 9.28187 34.4064 9.28187C35.5981 9.28187 37.1927 8.71958 38.6865 7.88035C38.8459 7.64537 39.039 7.41039 39.2572 7.18379L39.2656 7.16701ZM3.82495 19.789C0.543563 19.789 -0.00193496 19.4281 0.333756 18.8407C0.669448 18.2532 2.07096 17.9511 2.76752 17.9511C5.24324 17.9511 7.04758 18.6477 9.21279 19.2351C7.50916 19.6295 5.77196 19.789 3.82495 19.789ZM29.7823 2.71071C28.0619 5.69836 21.9858 9.76862 18.2513 9.76862C17.3869 9.76862 17.1099 9.43293 17.5379 8.67762C18.6289 6.78096 25.284 2.61839 30.0257 2.1736C29.9585 2.34145 29.8746 2.53447 29.7739 2.70232L29.7823 2.71071ZM20.4081 13.4277C18.9394 13.7046 17.5883 13.8724 16.4218 13.8724C12.6872 13.8724 11.5375 12.194 13.2579 9.21473C15.6748 5.02698 24.1678 0.226592 28.1206 0.226592C29.5725 0.226592 30.3697 0.864405 30.0844 1.98058C25.2588 2.42537 18.4779 6.67186 17.3197 8.67762C16.791 9.60077 17.0931 9.98682 18.1254 9.98682C21.9691 9.98682 28.2213 5.79907 30.0089 2.70232C30.118 2.50929 30.1935 2.34145 30.2606 2.1736C30.4453 2.14842 30.6131 2.14842 30.8061 2.14842C32.451 2.14842 33.4749 2.73588 33.4413 3.85206C30.2606 5.68997 26.7023 8.34193 22.8167 11.5226C21.9858 12.194 21.197 12.8318 20.4165 13.4193L20.4081 13.4277ZM33.391 8.67762C33.1644 8.34193 33.1895 7.81321 33.6092 7.08309C34.4652 5.60604 36.2359 4.65772 37.2346 4.65772C37.7633 4.65772 37.9396 4.93466 37.6123 5.49695C37.0836 6.4201 35.489 7.53627 33.3826 8.67762H33.391ZM34.3729 9.03849C34.012 9.03849 33.7266 8.95457 33.5252 8.8119C35.6737 7.63698 37.285 6.43688 37.8473 5.46338C38.2501 4.76682 37.9648 4.43113 37.3521 4.43113C36.2947 4.43113 34.3393 5.40463 33.3406 7.13344C32.9042 7.88875 32.8371 8.44264 33.0972 8.8119C29.9753 10.4568 25.8127 12.0765 22.0362 13.0248L23.5636 11.8247C27.3989 8.7028 30.3194 5.84942 33.4245 4.03669C33.3826 4.39756 33.2399 4.84235 32.963 5.32071C31.4691 7.91392 28.3556 9.30704 26.9037 9.64273C26.803 9.66791 26.7443 9.72666 26.7107 9.7854C26.6603 9.86932 26.6939 9.95325 26.8282 9.92807C28.2633 9.5672 31.6202 8.03141 33.1811 5.32071C33.4833 4.79199 33.6679 4.28846 33.6847 3.86884C36.4625 2.27431 38.9466 1.35955 40.9776 1.35955C42.8407 1.35955 43.2267 2.53447 42.5973 3.61707C41.4392 5.62283 36.6639 9.0301 34.3561 9.0301L34.3729 9.03849Z" fill="var(--fill-0, #001820)"/>
<g id="Group_2">
<path id="Vector_2" d="M32.5015 19.9904C37.134 18.6728 42.0519 15.3998 47.1964 11.1197C47.4649 10.8932 47.7587 10.675 48.044 10.4232L48.43 10.0875C51.4764 7.55302 54.4977 4.86749 56.6545 3.4492C59.3232 1.66164 61.4129 0.604213 62.6046 0.604213C63.3263 0.604213 63.3431 0.914728 63.0242 1.46862C62.5375 2.30785 59.5498 4.59894 57.9217 5.53888C55.2865 7.06627 52.1226 8.63563 49.2609 9.7518C49.2609 9.7518 49.2609 9.76019 49.2525 9.76859C49.1769 9.81894 49.1098 9.86929 49.0343 9.91126C48.9336 9.97839 48.8329 10.0539 48.7322 10.1211C48.707 10.1378 48.6818 10.1546 48.6566 10.1714C51.6946 9.03846 55.1355 7.34322 57.9888 5.69833C60.8003 4.05344 62.7641 2.81978 63.4019 1.71199C63.8718 0.906335 63.704 0.369229 62.7221 0.369229C60.1876 0.369229 53.2808 5.11087 46.525 10.6917L46.1809 11.0023C41.6994 14.6865 38.0152 17.7161 34.1548 19.2686" fill="var(--fill-0, #001820)"/>
<path id="Vector_3" d="M62.7306 6.04251C62.6466 6.04251 61.5137 6.46212 60.901 6.71389C52.9368 9.95331 50.0079 13.5452 41.5652 18.9247L41.5484 18.8995C47.2636 14.4348 51.9717 8.77839 55.3202 6.4873C55.5132 6.34463 55.4628 6.29428 55.3453 6.29428C54.1788 6.29428 48.279 10.1463 40.7763 15.5845C40.0546 16.1132 39.3497 16.6252 38.6447 17.1371H38.7622C38.7622 17.1371 38.7958 17.1203 38.8209 17.1035C38.8377 17.0951 38.8545 17.0868 38.8713 17.0784C38.8881 17.07 38.8545 17.0784 38.8545 17.0784C38.8545 17.0784 38.8545 17.0784 38.8629 17.0784C38.8797 17.07 38.9049 17.0532 38.9216 17.0448C39.0475 16.9777 39.1734 16.9273 39.2909 16.8769C39.8028 16.5077 40.3148 16.13 40.8435 15.7524C47.5993 10.8429 53.071 7.18386 54.8922 6.54605V6.57122C48.4637 10.3142 45.9544 14.9048 41.2379 18.8995C40.7428 19.3191 40.021 19.8478 39.9791 19.9317C39.9455 19.9905 39.9707 20.0492 40.021 20.0492C40.1301 20.0492 40.9358 19.5205 41.4058 19.2352C50.1757 13.6795 53.6753 9.47495 61.6983 6.57962V6.61319C58.0728 8.48466 47.1797 14.8124 43.6297 20.9808C43.2353 21.6605 42.9835 22.248 42.7821 22.7851L44.0242 21.5431C47.8846 14.846 60.0031 7.58669 62.655 6.27749C62.7222 6.25232 62.7893 6.19357 62.8061 6.16839C62.8397 6.10965 62.8145 6.05929 62.7306 6.05929V6.04251Z" fill="var(--fill-0, #001820)"/>
</g>
<g id="Group_3">
<path id="Vector_4" d="M44.5107 19.9904C49.1432 18.6728 54.0611 15.3998 59.2056 11.1197C59.4741 10.8932 59.7679 10.675 60.0532 10.4232L60.4392 10.0875C63.4856 7.55302 66.5069 4.86749 68.6637 3.4492C71.3324 1.66164 73.4221 0.604213 74.6138 0.604213C75.3355 0.604213 75.3523 0.914728 75.0334 1.46862C74.5467 2.30785 71.559 4.59894 69.9309 5.53888C67.2957 7.06627 64.1318 8.63563 61.2701 9.7518C61.2701 9.7518 61.2701 9.76019 61.2617 9.76859C61.1861 9.81894 61.119 9.86929 61.0435 9.91126C60.9428 9.97839 60.8421 10.0539 60.7414 10.1211C60.7162 10.1378 60.691 10.1546 60.6658 10.1714C63.7038 9.03846 67.1447 7.34322 69.998 5.69833C72.8095 4.05344 74.7733 2.81978 75.4111 1.71199C75.881 0.906335 75.7132 0.369229 74.7313 0.369229C72.1968 0.369229 65.29 5.11087 58.5342 10.6917L58.1901 11.0023C53.7086 14.6865 50.0244 17.7161 46.164 19.2686" fill="var(--fill-0, #001820)"/>
<path id="Vector_5" d="M56.0417 21.5347C59.9022 14.8376 72.0207 7.57831 74.6726 6.26911C74.7398 6.24393 74.8069 6.18519 74.8237 6.16001C74.8572 6.10126 74.8321 6.05091 74.7481 6.05091C74.6642 6.05091 73.5313 6.47052 72.9186 6.72229C64.9543 9.96171 62.0254 13.5536 53.5828 18.9331L53.566 18.9079C59.2812 14.4432 63.9892 8.78679 67.3378 6.4957C67.5308 6.35303 67.4804 6.30268 67.3629 6.30268C66.1964 6.30268 60.2966 10.1547 52.7939 15.5929C52.0722 16.1216 51.3672 16.6336 50.6623 17.1455H50.9644C51.5938 16.6839 52.2233 16.2307 52.8695 15.7608C59.6253 10.8513 65.097 7.19226 66.9181 6.55445V6.57962C60.4897 10.3226 57.9804 14.9132 53.2639 18.9079C52.7688 19.3275 52.047 19.8562 52.0051 19.9401C51.9715 19.9989 51.9967 20.0576 52.047 20.0576C52.1561 20.0576 52.9618 19.5289 53.4317 19.2436C62.2017 13.6879 65.7013 9.48335 73.7243 6.58802V6.62159C70.0988 8.49306 59.2056 14.8208 55.6557 20.9892C55.2613 21.6689 55.0095 22.2564 54.8081 22.7935" fill="var(--fill-0, #001820)"/>
</g>
<g id="Group_4">
<path id="Vector_6" d="M71.2318 19.9904C75.8643 18.6728 80.7822 15.3998 85.9267 11.1197C86.1952 10.8932 86.489 10.675 86.7743 10.4232L87.1603 10.0875C90.2067 7.55302 93.228 4.86749 95.3848 3.4492C98.0535 1.66164 100.143 0.604213 101.335 0.604213C102.057 0.604213 102.073 0.914728 101.755 1.46862C101.268 2.30785 98.2801 4.59894 96.652 5.53888C94.0168 7.06627 90.8529 8.63563 87.9912 9.7518C87.9912 9.7518 87.9912 9.76019 87.9828 9.76859C87.9073 9.81894 87.8401 9.86929 87.7646 9.91126C87.6639 9.97839 87.5632 10.0539 87.4625 10.1211C87.4373 10.1378 87.4121 10.1546 87.3869 10.1714C90.4249 9.03846 93.8658 7.34322 96.7191 5.69833C99.5306 4.05344 101.494 2.81978 102.132 1.71199C102.602 0.906335 102.434 0.369229 101.452 0.369229C98.9179 0.369229 92.0111 5.11087 85.2553 10.6917L84.9112 11.0023C80.4297 14.6865 76.7455 17.7161 72.8851 19.2686" fill="var(--fill-0, #001820)"/>
<path id="Vector_7" d="M82.7628 21.5347C86.6233 14.8376 98.7417 7.57831 101.394 6.26911C101.461 6.24393 101.528 6.18519 101.545 6.16001C101.578 6.10126 101.553 6.05091 101.469 6.05091C101.385 6.05091 100.252 6.47052 99.6397 6.72229C91.6754 9.96171 88.7465 13.5536 80.3039 18.9331L80.2871 18.9079C86.0023 14.4432 90.7103 8.78679 94.0588 6.4957C94.2519 6.35303 94.2015 6.30268 94.084 6.30268C92.9175 6.30268 87.0177 10.1547 79.515 15.5929C78.7933 16.1216 78.0883 16.6336 77.3834 17.1455H77.6855C78.3149 16.6839 78.9443 16.2307 79.5905 15.7608C86.3463 10.8513 91.8181 7.19226 93.6392 6.55445V6.57962C87.2107 10.3226 84.7014 14.9132 79.985 18.9079C79.4898 19.3275 78.7681 19.8562 78.7261 19.9401C78.6926 19.9989 78.7177 20.0576 78.7681 20.0576C78.8772 20.0576 79.6829 19.5289 80.1528 19.2436C88.9228 13.6879 92.4223 9.48335 100.445 6.58802V6.62159C96.8199 8.49306 85.9267 14.8208 82.3768 20.9892C81.9823 21.6689 81.7306 22.2564 81.5292 22.7935" fill="var(--fill-0, #001820)"/>
</g>
<path id="Vector_8" d="M86.1448 7.46919C88.0751 4.12067 87.303 2.55971 84.6846 2.55971C79.2548 2.55971 67.8664 9.23157 64.6522 14.8124C63.4101 16.9609 64.2997 18.1358 65.9698 18.1358C65.3236 19.252 65.2397 19.6967 65.1557 20.1751C65.1557 20.2339 65.1557 20.259 65.2229 20.259C65.3068 20.259 65.3655 20.2087 65.3991 20.1499C65.483 20.0073 65.3739 19.5625 66.1964 18.1442C72.3899 17.9176 79.4478 11.5311 81.0339 8.76999C81.6466 7.71257 81.6214 6.78942 80.564 6.78942C77.2238 6.78942 69.2092 12.8738 66.1041 17.926C64.5431 17.926 63.7374 16.8098 64.8788 14.8292C68.0259 9.35745 79.2128 2.80308 84.5587 2.80308C87.068 2.80308 87.3282 4.22977 85.9015 6.70549C82.9893 11.7576 74.6558 18.5386 69.2512 21.1067C69.1421 20.771 68.84 20.4604 67.9504 20.4604C66.6412 20.4604 64.8452 21.157 64.4088 21.9123C64.199 22.2732 64.3333 22.5837 64.9711 22.5837C65.7264 22.5837 67.1951 22.1976 68.9826 21.4172L69.2428 21.3081C74.6558 19.017 82.8551 13.1843 86.1364 7.49437L86.1448 7.46919ZM80.4297 6.99922C81.378 6.99922 81.2437 7.80488 80.6982 8.75321C79.6996 10.482 71.3073 17.5735 66.3223 17.9092C69.3603 12.9661 77.1483 6.99922 80.4297 6.99922ZM65.1054 22.3487C64.6018 22.3487 64.4927 22.1557 64.6522 21.8703C65.0047 21.2577 66.5656 20.6703 67.8497 20.6703C68.521 20.6703 68.9239 20.8381 68.991 21.199C67.2454 21.9543 65.8271 22.3403 65.1054 22.3403V22.3487Z" fill="var(--fill-0, #001820)"/>
<path id="Vector_9" d="M42.547 7.78802C41.968 8.7951 42.312 9.26507 43.2016 9.26507C45.7361 9.26507 50.3686 6.38651 51.8792 3.76812C52.0555 3.45761 52.1981 3.12191 52.2737 2.79462C54.0864 2.87854 54.4053 4.01989 53.5577 5.49693C53.499 5.59764 53.4066 5.70674 53.3311 5.81584C53.4486 5.7487 53.5577 5.68995 53.6752 5.6396C53.7004 5.58925 53.7507 5.54728 53.7759 5.49693C54.6907 3.9024 54.4137 2.65195 52.3156 2.56802C52.4415 1.6197 51.9632 0.805644 50.4022 0.805644C46.869 0.805644 40.0042 4.21291 37.6879 8.23282C37.3354 8.84545 37.2431 9.34899 37.3186 9.74343C35.4052 10.3561 32.8959 11.4722 30.6552 12.9493L30.395 13.1171C28.5487 14.3424 26.887 15.8194 25.9723 17.414C24.5875 19.8142 25.1582 21.2912 27.8857 21.2912C28.3053 21.2912 28.8256 21.2073 29.4634 21.0646C29.1949 22.5417 29.8998 23.49 31.4608 23.49C33.0218 23.49 34.5408 22.7347 34.6247 22.6004C34.6751 22.5165 34.6499 22.4577 34.5911 22.4577C34.482 22.4577 33.2652 23.2634 31.5951 23.2634C30.1516 23.2634 29.4635 22.3738 29.6984 21.0059C33.2484 20.1163 39.3663 17.3217 41.1035 14.3088C41.7665 13.1675 41.3469 12.58 39.9286 12.58C37.4781 12.58 32.4259 15.3159 30.202 19.168C29.8495 19.7806 29.6397 20.3429 29.497 20.8716C28.9347 20.9807 28.406 21.0646 28.02 21.0646C25.4603 21.0646 25.2337 19.6715 25.8296 18.6392C27.6927 15.3998 34.7254 10.8764 37.3774 9.90288C37.5788 10.3728 38.1327 10.6246 38.7957 10.6246C39.5174 10.6246 40.1804 10.3477 40.407 9.95323C40.6336 9.5588 40.3482 9.2315 39.6853 9.2315C39.2405 9.2315 38.4935 9.37417 37.604 9.65111C37.6291 9.45809 37.7047 9.29024 37.8138 9.08883C39.6265 5.93333 47.3054 1.02384 50.2847 1.02384C51.6778 1.02384 52.1394 1.7204 52.0723 2.55963C50.3267 2.58481 47.8174 3.36529 45.7277 4.73323C44.3681 5.59764 43.1513 6.74738 42.5554 7.77963L42.547 7.78802ZM39.9874 12.815C40.9861 12.815 41.4644 13.2934 40.877 14.3256C39.1901 17.2545 33.2064 19.9652 29.7236 20.8296C29.8495 20.4688 29.9502 20.1918 30.2943 19.6044C31.5447 17.4308 37.7634 12.8234 39.9874 12.8234V12.815ZM39.5929 9.43291C40.0965 9.43291 40.3566 9.6595 40.1972 9.93645C40.0209 10.247 39.4587 10.44 38.9299 10.44C38.3425 10.44 37.8306 10.2134 37.6124 9.82735C38.4096 9.60076 39.1481 9.43291 39.5929 9.43291ZM52.0471 2.79462C51.9632 3.13031 51.8289 3.466 51.6526 3.76812C50.2092 6.27741 45.7445 9.03848 43.3275 9.03848C42.547 9.03848 42.4883 8.70278 42.9079 7.98105C43.3275 7.25931 44.8297 6.14314 46.1053 5.32909C48.1531 3.99471 50.2931 2.79462 52.0471 2.79462Z" fill="var(--fill-0, #001820)"/>
</g>
</svg>
