<svg preserveAspectRatio="none" width="100%" height="100%" overflow="visible" style="display: block;" viewBox="0 0 16.4667 13" fill="none" xmlns="http://www.w3.org/2000/svg">
<path id="Mail-Graphic" d="M1.64667 13C1.19383 13 0.806318 12.841 0.48412 12.5231C0.161922 12.2051 0.000548889 11.8224 0 11.375V1.625C0 1.17812 0.161373 0.795708 0.48412 0.47775C0.806867 0.159791 1.19438 0.000541667 1.64667 0H14.82C15.2728 0 15.6606 0.15925 15.9834 0.47775C16.3061 0.79625 16.4672 1.17867 16.4667 1.625V11.375C16.4667 11.8219 16.3056 12.2046 15.9834 12.5231C15.6612 12.8416 15.2734 13.0005 14.82 13H1.64667ZM8.23333 7.17031C8.30194 7.17031 8.37412 7.16002 8.44987 7.13944C8.52562 7.11885 8.59752 7.08852 8.66558 7.04844L14.4907 3.45312C14.6004 3.38542 14.6828 3.30092 14.7377 3.19962C14.7926 3.09833 14.82 2.98648 14.82 2.86406C14.82 2.59323 14.7034 2.3901 14.4701 2.25469C14.2368 2.11927 13.9967 2.12604 13.7497 2.275L8.23333 5.6875L2.717 2.275C2.47 2.12604 2.22986 2.12279 1.99658 2.26525C1.76331 2.40771 1.64667 2.60731 1.64667 2.86406C1.64667 2.99948 1.67411 3.1181 1.729 3.21994C1.78389 3.32177 1.86622 3.3995 1.976 3.45312L7.80108 7.04844C7.86969 7.08906 7.94187 7.11967 8.01762 7.14025C8.09337 7.16083 8.16527 7.17085 8.23333 7.17031Z" fill="var(--fill-0, #001820)"/>
</svg>
